<?xml version="1.0" encoding="UTF-8" standalone="no"?>
<!DOCTYPE svg PUBLIC "-//W3C//DTD SVG 1.1//EN" "http://www.w3.org/Graphics/SVG/1.1/DTD/svg11.dtd">
<svg xmlns="http://www.w3.org/2000/svg" version="1.1" viewBox="0.00 0.00 340.00 127.00">
<g stroke-width="2.00" fill="none" stroke-linecap="butt">
<path stroke="#a3ccce" vector-effect="non-scaling-stroke" d="
  M 5.59 107.07
  C 7.24 114.11 12.66 119.95 19.47 122.03
  Q 22.65 123.00 31.64 123.00
  Q 137.82 123.00 244.00 123.00
  Q 248.41 123.00 261.00 122.41
  C 276.87 121.66 292.67 122.03 308.50 122.09
  C 317.61 122.12 325.30 118.18 328.52 109.83
  Q 329.98 106.04 329.99 95.51
  Q 330.02 62.59 329.98 29.68
  Q 329.97 21.78 329.23 18.88
  C 327.11 10.64 318.70 4.01 310.50 4.01
  Q 170.73 3.99 30.96 4.00
  Q 22.25 4.00 18.67 5.24
  C 10.34 8.12 5.05 15.89 5.02 24.75
  Q 4.94 43.93 5.02 98.89
  Q 5.03 104.68 5.59 107.07"
/>
<path stroke="#81bdc0" vector-effect="non-scaling-stroke" d="
  M 106.74 24.14
  C 135.88 24.03 164.12 34.86 186.76 52.98
  Q 189.45 55.14 197.49 62.56
  A 1.23 1.22 42.5 0 0 199.23 62.49
  L 199.43 62.28
  Q 200.71 60.90 199.38 59.57
  C 145.28 5.65 59.14 8.13 6.67 62.65
  A 1.26 1.26 0.0 0 0 6.81 64.52
  L 7.19 64.82
  Q 8.58 65.89 9.80 64.63
  Q 44.07 29.42 93.09 24.49
  C 97.41 24.06 102.23 24.16 106.74 24.14"
/>
<path stroke="#81bdc0" vector-effect="non-scaling-stroke" d="
  M 93.25 104.90
  Q 44.25 102.32 9.53 69.38
  Q 5.92 65.97 6.10 70.93
  Q 6.11 71.21 7.51 72.51
  C 55.35 117.11 128.59 121.09 180.54 81.05
  C 185.46 77.26 190.49 72.34 195.31 67.84
  A 1.57 1.57 0.0 0 0 195.58 65.87
  L 195.43 65.62
  A 1.65 1.65 0.0 0 0 192.90 65.27
  C 187.51 70.22 182.06 75.52 176.55 79.60
  Q 149.51 99.63 115.70 104.01"
/>
<path stroke="#a3ccce" vector-effect="non-scaling-stroke" d="
  M 115.70 104.01
  Q 129.57 98.53 136.81 87.56
  C 147.65 71.12 145.32 49.09 130.86 35.63
  C 106.57 13.02 66.94 27.05 62.45 59.87
  C 60.35 75.24 67.94 91.11 81.26 99.44
  Q 86.26 102.57 93.25 104.90"
/>
<path stroke="#ddf0f1" vector-effect="non-scaling-stroke" d="
  M 115.70 104.01
  Q 113.76 103.94 111.66 104.56
  Q 108.98 105.34 107.73 105.44
  Q 100.59 106.02 93.25 104.90"
/>
<path stroke="#a3ccce" vector-effect="non-scaling-stroke" d="
  M 276.86 37.92
  L 275.42 35.10
  A 0.54 0.54 0.0 0 0 274.70 34.87
  L 274.53 34.96
  A 2.21 2.00 -27.0 0 0 273.47 37.74
  L 273.57 37.95
  A 2.21 2.00 -27.0 0 0 276.45 38.73
  L 276.62 38.65
  A 0.54 0.54 0.0 0 0 276.86 37.92"
/>
<path stroke="#a3ccce" vector-effect="non-scaling-stroke" d="
  M 212.34 46.99
  Q 211.20 49.40 208.97 50.76
  Q 207.67 51.54 209.15 51.87
  Q 210.71 52.22 212.26 50.52
  Q 212.59 50.16 212.61 49.67
  Q 212.66 48.45 213.56 47.58
  Q 213.98 47.17 214.44 47.53
  L 216.50 49.15
  A 0.86 0.85 -66.7 0 0 217.87 48.60
  Q 218.04 47.41 217.22 46.59
  Q 216.83 46.21 216.29 46.25
  Q 215.97 46.27 215.67 46.15
  Q 214.84 45.81 215.68 45.49
  L 217.81 44.69
  Q 218.21 44.54 218.39 44.94
  L 220.01 48.58
  Q 220.28 49.17 220.92 49.09
  L 225.94 48.46
  Q 226.47 48.39 226.50 47.86
  Q 226.66 45.19 228.65 43.46
  Q 229.07 43.09 228.62 42.75
  C 224.87 39.95 220.10 42.31 216.55 42.89
  Q 214.48 43.23 216.16 41.97
  L 218.28 40.39
  A 0.67 0.67 0.0 0 0 218.04 39.20
  Q 216.52 38.82 215.03 39.34
  Q 213.43 39.91 214.11 38.35
  L 215.02 36.25
  Q 215.37 35.43 214.50 35.25
  L 214.16 35.18
  A 1.16 1.15 16.8 0 0 212.85 35.88
  L 210.13 42.65
  Q 209.82 43.43 210.63 43.22
  Q 211.50 42.99 212.09 42.29
  A 0.57 0.57 0.0 0 1 213.00 42.34
  Q 213.25 42.74 213.18 43.18
  Q 213.09 43.74 212.56 43.94
  L 206.76 46.05
  Q 205.92 46.36 206.42 47.11
  L 206.79 47.68
  Q 207.31 48.46 208.10 47.96
  Q 209.87 46.82 211.96 46.48
  Q 212.63 46.38 212.34 46.99"
/>
<path stroke="#a3ccce" vector-effect="non-scaling-stroke" d="
  M 297.93 53.94
  L 297.71 57.43
  A 0.56 0.55 9.3 0 1 297.01 57.93
  L 295.25 57.46
  Q 295.14 57.44 295.13 57.46
  L 294.97 57.66
  Q 294.88 57.78 294.98 57.90
  Q 296.53 59.70 298.83 60.15
  Q 299.35 60.25 299.50 59.75
  L 299.62 59.37
  A 0.36 0.36 0.0 0 1 299.92 59.12
  Q 302.80 58.79 304.43 56.36
  A 1.96 1.93 -25.3 0 0 304.76 55.46
  C 305.25 50.79 308.12 51.02 311.82 50.37
  A 0.99 0.97 5.4 0 0 312.55 49.78
  L 314.21 45.75
  A 0.97 0.96 -73.7 0 0 313.49 44.43
  C 309.99 43.81 307.42 45.24 304.27 46.28
  Q 303.78 46.44 303.86 46.94
  C 304.35 50.13 303.46 56.22 300.15 57.90
  A 0.41 0.40 -13.2 0 1 299.56 57.54
  L 299.51 51.98
  Q 299.51 51.36 300.01 51.00
  Q 301.34 50.05 300.11 48.93
  Q 299.67 48.54 300.05 48.09
  Q 300.86 47.14 301.47 46.06
  Q 302.52 44.22 301.10 43.58
  Q 300.60 43.36 300.62 42.80
  L 300.82 38.57
  A 0.88 0.88 0.0 0 0 300.09 37.66
  L 299.35 37.53
  Q 298.60 37.40 298.56 38.16
  L 298.24 44.13
  Q 298.22 44.60 297.85 44.90
  Q 296.27 46.20 294.22 46.27
  A 0.51 0.51 0.0 0 0 293.73 46.82
  C 293.88 48.50 295.49 48.66 297.11 48.52
  A 0.68 0.67 76.3 0 1 297.79 48.94
  Q 298.35 50.34 297.04 51.08
  Q 294.41 52.57 292.65 54.16
  Q 291.71 55.00 292.69 55.78
  L 293.04 56.06
  Q 293.85 56.71 294.61 56.01
  L 297.25 53.62
  A 0.41 0.40 -19.4 0 1 297.93 53.94"
/>
<path stroke="#a3ccce" vector-effect="non-scaling-stroke" d="
  M 251.20 50.12
  A 0.42 0.42 0.0 0 1 251.23 49.35
  Q 253.67 48.42 255.65 46.69
  Q 256.10 46.29 255.68 45.86
  L 255.17 45.34
  A 0.73 0.72 50.8 0 0 254.26 45.24
  C 252.94 46.10 249.70 48.73 248.04 47.87
  A 0.41 0.41 0.0 0 1 248.15 47.10
  L 251.47 46.49
  A 0.85 0.83 -86.4 0 0 252.12 45.90
  L 253.97 39.52
  A 0.77 0.76 19.8 0 0 253.53 38.60
  C 251.06 37.54 248.20 39.26 246.12 40.03
  Q 245.58 40.23 245.55 40.80
  C 245.26 46.10 244.56 52.20 245.55 57.42
  A 0.87 0.86 67.0 0 0 246.90 57.97
  Q 249.89 55.83 251.73 52.63
  A 0.78 0.78 0.0 0 1 253.15 52.78
  L 253.74 54.56
  Q 253.88 54.96 254.27 55.14
  Q 257.17 56.43 259.33 55.80
  Q 261.55 55.16 259.47 54.14
  L 251.20 50.12"
/>
<path stroke="#a3ccce" vector-effect="non-scaling-stroke" d="
  M 305.73 39.57
  L 305.94 40.83
  A 1.36 1.36 0.0 0 0 307.09 41.96
  Q 309.07 42.24 310.99 41.82
  A 0.65 0.65 0.0 0 0 311.20 40.63
  Q 309.09 39.29 306.62 38.73
  Q 305.55 38.49 305.73 39.57"
/>
<path stroke="#a3ccce" vector-effect="non-scaling-stroke" d="
  M 242.12 50.29
  L 242.02 52.29
  Q 241.98 53.12 241.26 52.72
  Q 240.94 52.54 240.67 52.72
  A 0.55 0.54 40.8 0 0 240.74 53.65
  L 243.01 54.78
  Q 243.68 55.12 243.69 54.37
  C 243.75 50.30 243.20 44.95 244.59 41.10
  A 1.52 1.51 3.9 0 0 242.84 39.10
  L 237.51 40.26
  A 0.97 0.97 0.0 0 0 236.75 41.23
  L 236.99 50.73
  Q 237.00 51.17 236.66 51.46
  L 234.73 53.05
  Q 234.12 53.56 234.69 54.10
  L 235.17 54.56
  A 0.85 0.85 0.0 0 0 236.31 54.58
  L 241.55 50.02
  Q 242.16 49.49 242.12 50.29"
/>
<path stroke="#a3ccce" vector-effect="non-scaling-stroke" d="
  M 281.69 43.00
  Q 281.27 43.57 280.68 43.90
  Q 278.40 45.16 280.75 45.04
  L 284.18 44.88
  Q 285.54 44.81 284.88 43.62
  C 281.39 37.29 276.35 39.42 271.07 41.30
  A 0.56 0.56 0.0 0 0 270.72 42.00
  L 270.81 42.27
  A 0.96 0.96 0.0 0 0 271.94 42.91
  C 274.85 42.24 279.54 38.76 281.72 42.04
  Q 282.03 42.53 281.69 43.00"
/>
<path stroke="#a3ccce" vector-effect="non-scaling-stroke" d="
  M 269.48 45.93
  C 269.39 44.95 269.18 44.61 269.54 43.62
  A 0.46 0.46 0.0 0 0 269.01 43.02
  Q 267.24 43.40 266.44 45.06
  Q 266.24 45.49 266.59 45.81
  Q 267.61 46.76 269.04 46.50
  Q 269.53 46.42 269.48 45.93"
/>
<path stroke="#a3ccce" vector-effect="non-scaling-stroke" d="
  M 278.55 46.88
  Q 278.34 45.59 278.68 44.36
  Q 278.83 43.79 278.30 43.55
  Q 277.48 43.17 276.56 43.20
  Q 276.05 43.21 276.08 43.72
  L 276.24 46.70
  A 0.58 0.58 0.0 0 1 275.78 47.29
  L 264.41 49.73
  A 0.87 0.86 -12.4 0 0 263.74 50.77
  Q 263.94 51.59 264.72 51.86
  A 0.91 0.89 -51.7 0 0 265.50 51.76
  Q 267.13 50.72 269.05 51.06
  A 1.12 1.11 -10.5 0 1 269.80 51.57
  L 271.36 54.08
  A 0.64 0.63 46.5 0 0 272.42 54.11
  Q 273.58 52.45 272.27 50.84
  A 0.42 0.42 0.0 0 1 272.57 50.16
  L 275.71 49.93
  Q 276.27 49.89 276.27 50.46
  L 276.30 56.94
  Q 276.30 58.44 274.80 58.29
  L 270.53 57.86
  Q 268.60 57.66 270.24 58.68
  Q 273.81 60.91 278.05 61.38
  Q 278.47 61.43 278.47 61.01
  L 278.57 50.24
  Q 278.58 49.65 279.16 49.60
  Q 282.03 49.33 284.77 50.25
  A 0.46 0.45 -1.8 0 0 285.34 49.65
  L 284.51 47.48
  Q 284.30 46.93 283.72 46.97
  L 279.04 47.26
  Q 278.62 47.29 278.55 46.88"
/>
<path stroke="#a3ccce" vector-effect="non-scaling-stroke" d="
  M 222.75 61.25
  C 223.46 58.09 222.53 55.04 223.59 51.90
  Q 223.76 51.39 223.30 51.13
  C 220.19 49.40 217.31 50.73 214.37 51.24
  Q 213.07 51.46 213.18 52.78
  L 213.64 58.53
  Q 213.75 59.86 215.00 59.37
  Q 216.35 58.84 217.75 58.78
  Q 218.27 58.76 218.63 59.13
  Q 220.18 60.69 222.22 61.52
  Q 222.65 61.70 222.75 61.25"
/>
<path stroke="#a3ccce" vector-effect="non-scaling-stroke" d="
  M 276.76 74.73
  Q 275.38 74.09 276.74 73.68
  L 281.55 72.22
  A 0.52 0.51 -39.7 0 0 281.64 71.27
  L 280.27 70.56
  Q 279.75 70.29 279.32 70.69
  Q 277.98 71.94 277.13 72.29
  Q 275.23 73.05 276.17 71.21
  L 276.75 70.08
  Q 277.06 69.47 276.43 69.21
  Q 275.41 68.79 274.35 68.82
  Q 273.74 68.83 273.84 69.43
  Q 274.25 71.91 273.21 72.23
  Q 271.24 72.84 269.07 73.32
  Q 268.46 73.46 268.78 74.00
  Q 269.43 75.13 269.69 76.41
  Q 269.81 76.96 270.37 76.99
  Q 274.52 77.17 278.53 76.17
  Q 280.51 75.68 282.10 76.52
  A 0.70 0.70 0.0 0 1 282.14 77.74
  L 280.96 78.47
  A 0.37 0.37 0.0 0 0 281.11 79.15
  Q 283.05 79.41 284.97 79.05
  A 0.50 0.49 -18.9 0 0 285.33 78.33
  Q 283.27 74.41 278.77 74.83
  Q 277.27 74.97 276.76 74.73"
/>
<path stroke="#a3ccce" vector-effect="non-scaling-stroke" d="
  M 305.78 87.14
  L 306.03 95.45
  Q 306.05 96.06 306.66 96.00
  L 307.09 95.96
  Q 307.72 95.91 307.72 95.27
  L 307.79 86.51
  Q 307.79 86.05 308.25 86.00
  Q 310.96 85.68 313.55 86.47
  A 0.84 0.84 0.0 0 0 314.58 85.38
  C 313.58 82.61 310.92 83.92 308.66 83.71
  Q 307.99 83.65 308.12 83.00
  L 308.18 82.68
  Q 308.31 81.99 308.99 81.85
  L 311.83 81.22
  Q 312.47 81.08 312.35 80.43
  C 312.01 78.64 310.05 78.96 308.69 79.00
  A 0.49 0.48 3.0 0 1 308.19 78.45
  Q 308.29 77.77 309.02 77.49
  Q 310.80 76.80 312.62 76.31
  A 0.69 0.69 0.0 0 0 312.97 75.21
  L 312.31 74.42
  A 1.21 1.21 0.0 0 0 310.72 74.18
  L 308.76 75.46
  A 0.43 0.43 0.0 0 1 308.10 75.14
  Q 307.94 73.22 308.42 71.40
  Q 308.56 70.84 308.04 70.59
  Q 307.25 70.20 306.36 70.26
  Q 305.89 70.29 305.88 70.76
  L 305.75 79.17
  Q 305.74 79.66 305.31 79.91
  Q 303.52 80.95 301.48 81.31
  Q 300.73 81.44 301.13 82.09
  L 301.33 82.43
  Q 301.88 83.35 302.90 83.03
  L 305.06 82.35
  A 0.43 0.43 0.0 0 1 305.62 82.72
  L 305.65 82.98
  Q 305.71 83.61 305.12 83.82
  L 299.36 85.87
  A 0.52 0.51 71.9 0 0 299.04 86.51
  L 299.15 86.85
  A 0.69 0.69 0.0 0 0 299.90 87.32
  L 305.14 86.59
  Q 305.77 86.50 305.78 87.14"
/>
<path stroke="#a3ccce" vector-effect="non-scaling-stroke" d="
  M 248.74 70.60
  Q 244.31 72.22 240.34 74.66
  Q 238.97 75.50 240.55 75.82
  Q 242.45 76.20 244.93 74.24
  C 246.77 72.78 248.07 72.77 250.26 72.15
  A 0.57 0.56 59.6 0 0 250.50 71.21
  L 250.22 70.92
  A 1.42 1.41 57.1 0 0 248.74 70.60"
/>
<path stroke="#a3ccce" vector-effect="non-scaling-stroke" d="
  M 213.17 89.48
  Q 214.25 87.71 214.96 85.75
  Q 215.87 83.23 213.93 85.08
  L 212.20 86.72
  A 0.42 0.42 0.0 0 1 211.49 86.43
  Q 211.38 83.78 212.80 81.63
  A 0.98 0.98 0.0 0 0 212.41 80.21
  Q 211.08 79.55 209.97 80.42
  Q 209.59 80.72 209.12 80.84
  L 205.27 81.83
  Q 204.58 82.01 204.80 82.69
  L 205.37 84.38
  A 0.44 0.44 0.0 0 0 206.05 84.60
  Q 207.03 83.90 208.25 83.74
  A 1.33 1.32 -86.7 0 1 209.70 85.38
  Q 208.90 88.50 209.93 91.59
  Q 210.11 92.14 210.57 91.77
  L 212.24 90.42
  A 0.42 0.42 0.0 0 1 212.91 90.65
  Q 213.06 91.37 213.59 91.90
  Q 213.96 92.27 214.47 92.11
  Q 221.37 89.87 228.53 91.04
  Q 229.58 91.21 229.24 90.20
  L 228.82 88.97
  Q 228.49 88.01 227.47 88.01
  L 223.24 87.98
  Q 222.03 87.98 221.84 86.78
  Q 220.94 80.86 225.62 80.06
  Q 227.15 79.79 226.76 77.78
  Q 226.55 76.72 225.58 77.20
  Q 224.13 77.90 222.53 77.99
  Q 221.98 78.03 222.02 77.47
  L 222.35 72.94
  Q 222.42 71.89 221.42 71.56
  L 220.81 71.37
  Q 219.37 70.90 219.33 72.42
  L 219.02 87.20
  A 1.72 1.71 -12.6 0 1 218.07 88.68
  Q 215.90 89.74 213.53 90.04
  A 0.37 0.37 0.0 0 1 213.17 89.48"
/>
<path stroke="#a3ccce" vector-effect="non-scaling-stroke" d="
  M 210.38 75.31
  A 0.88 0.88 0.0 0 0 210.95 76.19
  Q 212.49 76.75 214.13 76.69
  A 0.78 0.78 0.0 0 0 214.77 75.50
  L 212.74 72.23
  A 1.19 1.18 31.1 0 0 210.55 72.77
  L 210.38 75.31"
/>
<path stroke="#a3ccce" vector-effect="non-scaling-stroke" d="
  M 295.75 83.63
  L 295.70 91.86
  Q 295.70 92.65 296.47 92.82
  L 296.87 92.91
  Q 297.53 93.06 297.58 92.39
  L 298.27 82.86
  Q 298.31 82.36 297.83 82.21
  Q 296.28 81.69 296.54 80.30
  Q 296.67 79.62 297.56 78.69
  Q 299.46 76.70 300.61 74.42
  Q 300.99 73.67 300.24 73.29
  L 299.40 72.87
  A 0.94 0.93 25.5 0 0 298.12 73.32
  Q 295.71 78.80 291.90 83.42
  Q 291.32 84.14 292.24 84.10
  Q 293.66 84.05 294.72 83.15
  A 0.63 0.62 -19.9 0 1 295.75 83.63"
/>
<path stroke="#a3ccce" vector-effect="non-scaling-stroke" d="
  M 242.44 78.17
  L 243.39 77.09
  Q 243.69 76.76 243.50 76.36
  Q 243.31 75.94 242.74 76.01
  Q 241.58 76.16 240.32 77.28
  Q 239.91 77.63 240.26 78.04
  L 240.85 78.75
  Q 241.26 79.22 240.75 79.58
  L 236.85 82.37
  Q 235.37 83.43 237.00 84.24
  L 238.21 84.84
  Q 238.75 85.11 238.83 84.51
  L 239.17 81.80
  Q 239.25 81.20 239.85 81.15
  Q 241.86 80.95 243.67 80.03
  A 0.47 0.46 73.8 0 1 244.34 80.40
  L 244.38 80.73
  Q 244.46 81.48 243.76 81.74
  L 240.59 82.92
  Q 239.98 83.15 240.20 83.75
  Q 240.68 85.10 242.08 85.12
  Q 242.76 85.14 242.37 85.69
  Q 239.70 89.48 235.42 91.22
  A 0.43 0.43 0.0 0 0 235.60 92.04
  L 238.65 91.90
  Q 239.14 91.88 239.43 91.49
  L 241.71 88.53
  A 1.79 1.78 -56.9 0 1 243.97 88.05
  L 244.81 88.50
  Q 245.83 89.05 244.85 89.68
  Q 243.04 90.82 240.99 91.32
  A 0.41 0.41 0.0 0 0 240.80 92.02
  C 242.84 93.99 245.10 91.93 246.76 90.67
  A 1.12 1.10 27.9 0 1 247.51 90.45
  Q 250.26 90.65 250.54 93.21
  Q 250.59 93.72 251.07 93.92
  Q 254.61 95.36 257.05 94.60
  Q 259.51 93.84 257.09 92.96
  L 250.39 90.54
  Q 248.13 89.72 249.42 87.69
  L 250.53 85.94
  A 0.58 0.58 0.0 0 0 250.05 85.05
  L 246.15 85.01
  A 0.39 0.39 0.0 0 0 245.94 85.74
  L 247.24 86.52
  Q 247.46 86.66 247.37 86.90
  L 247.23 87.32
  Q 247.08 87.74 246.67 87.55
  L 245.23 86.88
  A 1.34 1.34 0.0 0 1 245.30 84.43
  Q 247.68 83.46 249.93 83.12
  C 251.71 82.86 254.03 83.36 256.23 82.88
  Q 256.68 82.78 256.54 82.34
  Q 255.00 77.43 250.02 76.77
  Q 249.15 76.66 249.84 76.12
  L 251.53 74.80
  A 0.75 0.74 63.7 0 0 251.79 74.03
  Q 251.56 73.18 250.73 73.00
  A 0.97 0.97 0.0 0 0 249.72 73.40
  C 247.57 76.56 246.61 77.73 242.71 78.62
  Q 241.86 78.81 242.44 78.17"
/>
<path stroke="#a3ccce" vector-effect="non-scaling-stroke" d="
  M 244.83 75.58
  A 0.55 0.54 58.9 0 0 244.65 76.35
  L 244.84 76.63
  A 0.74 0.74 0.0 0 0 245.74 76.92
  Q 247.00 76.40 247.19 75.02
  A 0.42 0.42 0.0 0 0 246.57 74.59
  L 244.83 75.58"
/>
<path stroke="#a3ccce" vector-effect="non-scaling-stroke" d="
  M 302.02 79.89
  C 303.26 79.66 304.56 77.95 305.36 76.88
  Q 305.59 76.57 305.32 76.30
  Q 305.21 76.20 305.04 76.16
  Q 304.80 76.11 304.43 76.29
  Q 302.67 77.14 301.09 77.23
  Q 300.07 77.30 300.43 78.25
  L 300.80 79.21
  Q 301.13 80.07 302.02 79.89"
/>
<path stroke="#a3ccce" vector-effect="non-scaling-stroke" d="
  M 265.86 80.73
  Q 266.91 81.16 268.06 80.95
  Q 268.62 80.85 268.46 80.30
  Q 268.21 79.44 268.38 78.54
  A 0.50 0.50 0.0 0 0 267.79 77.95
  Q 266.21 78.25 265.48 79.71
  A 0.74 0.74 0.0 0 0 265.86 80.73"
/>
<path stroke="#a3ccce" vector-effect="non-scaling-stroke" d="
  M 276.48 90.31
  L 278.90 91.20
  Q 280.04 91.63 280.40 90.46
  L 281.92 85.57
  Q 282.24 84.51 281.19 84.18
  Q 279.00 83.49 276.71 83.77
  A 0.30 0.30 0.0 0 1 276.55 83.20
  L 277.87 82.61
  A 0.76 0.74 -4.0 0 0 278.27 82.16
  Q 278.73 80.75 279.84 79.78
  Q 280.40 79.29 279.75 78.91
  C 276.81 77.19 274.22 78.20 271.20 79.10
  Q 270.70 79.25 270.78 79.76
  Q 271.14 82.07 273.10 83.15
  Q 274.24 83.77 273.00 84.15
  L 269.60 85.22
  Q 269.07 85.38 269.17 85.92
  L 269.83 89.87
  Q 269.93 90.46 270.52 90.41
  Q 271.02 90.37 271.33 89.99
  Q 271.60 89.65 271.60 88.92
  Q 271.60 87.74 271.66 86.77
  A 0.82 0.81 -5.5 0 1 272.27 86.04
  L 273.32 85.77
  A 0.59 0.58 82.8 0 1 274.05 86.34
  L 273.96 94.86
  Q 273.96 95.28 274.32 95.47
  Q 275.23 95.96 275.70 94.95
  Q 276.38 93.51 276.01 90.69
  Q 275.93 90.11 276.48 90.31"
/>
<path stroke="#ffe2da" vector-effect="non-scaling-stroke" d="
  M 79.84 79.00
  Q 78.66 76.08 77.13 74.88
  Q 75.32 73.47 73.99 75.10
  Q 73.65 75.51 73.16 75.31
  Q 72.78 75.16 72.50 74.83
  Q 72.16 74.44 71.65 74.46
  Q 70.48 74.52 69.89 75.55
  A 1.39 1.38 46.2 0 0 69.87 76.89
  Q 72.74 82.20 76.20 87.19
  C 80.58 93.50 84.20 93.26 91.14 94.37
  A 1.50 1.45 -16.3 0 1 91.98 94.81
  L 95.91 99.14
  Q 96.26 99.52 96.77 99.51
  L 112.65 99.46
  Q 113.13 99.46 113.45 99.11
  L 117.46 94.69
  A 0.86 0.81 14.8 0 1 117.94 94.43
  C 121.03 93.91 124.55 93.71 127.31 92.62
  C 132.41 90.61 136.87 81.86 139.58 76.87
  A 1.41 1.39 38.6 0 0 139.39 75.27
  Q 138.05 73.76 136.64 75.13
  A 0.99 0.99 0.0 0 1 135.20 75.07
  Q 133.57 73.19 131.67 75.44
  Q 129.37 78.18 127.25 81.08
  Q 127.00 81.42 126.62 81.57
  L 121.88 83.46
  A 1.03 1.01 38.4 0 1 121.32 83.52
  C 114.90 82.27 109.03 89.12 105.16 93.30
  A 0.49 0.49 0.0 0 1 104.45 93.31
  Q 99.85 88.56 94.51 84.41
  Q 92.32 82.71 87.98 83.50
  Q 87.48 83.59 87.04 83.36
  C 84.46 82.05 82.11 81.86 80.62 79.08"
/>
<path stroke="#f7cea2" vector-effect="non-scaling-stroke" d="
  M 80.62 79.08
  Q 83.31 71.23 85.72 63.56
  C 86.35 61.55 87.29 60.54 89.30 60.16
  A 0.35 0.34 -4.8 0 1 89.71 60.50
  L 89.62 67.20"
/>
<path stroke="#f3b89b" vector-effect="non-scaling-stroke" d="
  M 89.62 67.20
  Q 89.48 67.93 89.67 68.72"
/>
<path stroke="#b79d98" vector-effect="non-scaling-stroke" d="
  M 89.67 68.72
  L 89.81 70.41"
/>
<path stroke="#d0b09f" vector-effect="non-scaling-stroke" d="
  M 89.81 70.41
  Q 89.71 73.50 90.77 76.89
  A 1.25 1.19 -41.9 0 1 90.70 77.78
  Q 90.36 78.51 90.42 79.24
  Q 90.47 79.79 91.01 79.76
  L 93.97 79.65
  A 0.72 0.72 0.0 0 0 94.65 78.79
  Q 93.98 75.47 94.82 72.18
  Q 94.94 71.73 95.40 71.64
  Q 95.68 71.59 95.91 71.77
  Q 96.17 71.99 96.15 72.55
  Q 96.06 75.81 96.11 79.10
  Q 96.12 79.80 96.82 79.77
  L 99.97 79.66
  A 0.52 0.52 0.0 0 0 100.30 78.76
  Q 99.90 78.40 99.75 77.91
  Q 99.62 77.49 99.73 77.06
  L 102.04 68.22"
/>
<path stroke="#f3b89b" vector-effect="non-scaling-stroke" d="
  M 102.04 68.22
  L 102.22 66.84
  Q 102.27 66.41 102.71 66.40
  L 105.70 66.36"
/>
<path stroke="#e4a699" vector-effect="non-scaling-stroke" d="
  M 105.70 66.36
  L 105.89 69.21"
/>
<path stroke="#d0b09f" vector-effect="non-scaling-stroke" d="
  M 105.89 69.21
  L 107.20 77.23
  A 1.20 1.18 56.2 0 1 107.05 78.03
  Q 106.76 78.48 106.77 79.02
  Q 106.77 79.77 107.53 79.76
  L 110.70 79.72
  A 0.50 0.50 0.0 0 0 111.18 79.09
  Q 110.20 75.58 111.08 72.02
  Q 111.57 70.05 112.20 71.98
  Q 113.11 74.75 112.12 79.25
  A 0.42 0.41 6.1 0 0 112.53 79.75
  L 115.98 79.75
  A 0.66 0.66 0.0 0 0 116.64 79.12
  Q 116.66 78.37 116.36 77.67
  A 1.26 1.25 -48.9 0 1 116.31 76.87
  L 117.98 70.76"
/>
<path stroke="#b79d98" vector-effect="non-scaling-stroke" d="
  M 117.98 70.76
  L 118.26 68.86"
/>
<path stroke="#e4a699" vector-effect="non-scaling-stroke" d="
  M 118.26 68.86
  L 116.91 60.65"
/>
<path stroke="#f3b89b" vector-effect="non-scaling-stroke" d="
  M 116.91 60.65
  Q 116.68 59.20 117.15 58.08
  Q 117.36 57.59 117.88 57.48
  C 120.13 57.03 123.42 56.97 123.09 53.62
  Q 123.03 53.06 123.44 52.67
  L 124.72 51.41
  A 1.73 1.72 64.1 0 0 125.22 49.96
  L 125.17 49.62
  A 0.50 0.49 -22.2 0 0 124.38 49.29
  L 120.53 52.16"
/>
<path stroke="#f7cea2" vector-effect="non-scaling-stroke" d="
  M 120.53 52.16
  Q 117.71 53.33 115.42 52.72
  A 0.67 0.67 0.0 0 1 115.10 51.61
  C 119.20 47.31 113.86 41.08 109.72 44.65
  Q 106.42 47.50 108.97 51.41
  Q 109.29 51.89 108.72 51.94
  L 108.18 51.99
  Q 107.53 52.04 107.46 52.69
  Q 107.29 54.32 105.87 55.16
  Q 105.44 55.42 105.15 55.01
  L 100.13 47.81
  Q 99.86 47.42 100.31 47.25
  Q 104.06 45.86 102.41 41.77
  C 100.55 37.16 91.95 41.79 95.59 45.97
  Q 95.92 46.34 95.52 46.64
  C 91.36 49.87 86.08 53.58 85.04 59.42
  Q 84.94 59.97 84.55 60.36
  Q 83.80 61.13 84.20 62.15
  Q 84.38 62.64 84.24 63.14
  L 79.84 79.00"
/>
<path stroke="#ea873e" vector-effect="non-scaling-stroke" d="
  M 120.53 52.16
  Q 119.47 52.98 118.99 53.94
  Q 118.85 54.24 118.57 54.43
  L 115.95 56.14
  Q 115.50 56.43 114.99 56.60
  C 114.03 56.93 113.27 57.26 112.19 57.37
  Q 111.57 57.43 111.09 57.87
  A 1.98 1.96 -75.1 0 1 110.41 58.27
  C 108.88 58.75 107.34 59.63 105.81 59.62
  Q 105.41 59.62 105.04 59.76
  Q 103.79 60.21 102.47 60.34
  A 2.44 2.44 0.0 0 0 100.27 62.71
  Q 100.21 65.55 96.80 64.90"
/>
<path stroke="#f7cea2" vector-effect="non-scaling-stroke" d="
  M 96.80 64.90
  Q 97.75 64.20 97.39 62.82
  A 1.60 1.59 -87.1 0 0 96.41 61.73
  Q 94.33 60.93 93.05 62.49
  A 1.69 1.68 21.2 0 0 94.26 65.23
  L 95.98 65.33"
/>
<path stroke="#ea873e" vector-effect="non-scaling-stroke" d="
  M 95.98 65.33
  Q 93.75 65.89 91.85 64.92
  A 0.77 0.75 13.6 0 1 91.44 64.27
  L 91.39 60.70
  Q 91.38 60.45 91.14 60.40
  L 90.63 60.31
  Q 90.37 60.26 90.34 60.52
  L 89.62 67.20"
/>
<path stroke="#f7b07d" vector-effect="non-scaling-stroke" d="
  M 80.62 79.08
  Q 79.71 78.12 79.84 79.00"
/>
<path stroke="#d75f34" vector-effect="non-scaling-stroke" d="
  M 116.91 60.65
  Q 113.06 59.90 109.12 62.19
  Q 108.71 62.43 108.50 62.86
  Q 107.77 64.39 106.26 65.12
  Q 105.87 65.31 105.84 65.74
  Q 105.82 66.09 105.70 66.36"
/>
<path stroke="#c4693a" vector-effect="non-scaling-stroke" d="
  M 102.04 68.22
  Q 101.86 67.93 101.87 67.68
  A 0.02 0.01 44.4 0 1 101.90 67.68
  Q 101.97 68.56 100.87 68.44"
/>
<path stroke="#ab5634" vector-effect="non-scaling-stroke" d="
  M 100.87 68.44
  L 90.19 68.21
  Q 89.94 68.21 89.80 68.41
  Q 89.70 68.54 89.67 68.72"
/>
<path stroke="#f3b89b" vector-effect="non-scaling-stroke" d="
  M 95.98 65.33
  L 96.80 64.90"
/>
<path stroke="#9c4432" vector-effect="non-scaling-stroke" d="
  M 118.26 68.86
  Q 115.71 67.48 112.00 68.12
  Q 109.50 68.55 107.79 68.36
  Q 107.30 68.31 106.95 68.66
  L 106.38 69.22"
/>
<path stroke="#b55738" vector-effect="non-scaling-stroke" d="
  M 106.38 69.22
  Q 106.05 68.71 105.89 69.21"
/>
<path stroke="#884e38" vector-effect="non-scaling-stroke" d="
  M 89.81 70.41
  C 92.62 70.02 94.48 69.73 97.47 70.33
  Q 101.73 71.19 100.87 68.44"
/>
<path stroke="#884e38" vector-effect="non-scaling-stroke" d="
  M 117.98 70.76
  L 106.99 70.62
  Q 106.41 70.61 106.40 70.03
  L 106.38 69.22"
/>
<path stroke="#a3ccce" vector-effect="non-scaling-stroke" d="
  M 221.4510 46.1131
  A 1.74 1.16 139.8 0 0 223.5287 45.8760
  A 1.74 1.16 139.8 0 0 224.1090 43.8669
  A 1.74 1.16 139.8 0 0 222.0313 44.1040
  A 1.74 1.16 139.8 0 0 221.4510 46.1131"
/>
<path stroke="#a3ccce" vector-effect="non-scaling-stroke" d="
  M 310.3491 46.0547
  A 1.84 1.04 -27.7 0 0 308.2366 45.9892
  A 1.84 1.04 -27.7 0 0 307.0909 47.7653
  A 1.84 1.04 -27.7 0 0 309.2034 47.8308
  A 1.84 1.04 -27.7 0 0 310.3491 46.0547"
/>
<path stroke="#a3ccce" vector-effect="non-scaling-stroke" d="
  M 249.64 43.67
  Q 249.27 44.07 247.92 44.70
  Q 247.73 44.79 247.73 44.93
  Q 247.72 45.37 248.15 45.27
  Q 251.66 44.45 250.88 40.63
  Q 250.67 39.62 249.71 40.00
  Q 248.63 40.42 247.77 41.25
  A 0.43 0.43 0.0 0 0 248.01 41.98
  Q 248.39 42.03 248.74 41.95
  A 1.04 1.00 -73.7 0 1 249.64 43.67"
/>
<path stroke="#a3ccce" vector-effect="non-scaling-stroke" d="
  M 246.68 54.33
  Q 246.81 55.31 247.68 54.83
  Q 249.28 53.96 250.30 52.48
  A 0.83 0.82 43.1 0 0 250.26 51.48
  Q 249.17 50.16 247.50 49.93
  A 0.57 0.57 0.0 0 0 246.87 50.36
  Q 246.41 52.34 246.68 54.33"
/>
<path stroke="#a3ccce" vector-effect="non-scaling-stroke" d="
  M 241.00 45.51
  Q 241.06 45.81 240.99 46.11
  Q 240.91 46.46 240.42 46.81
  Q 239.50 47.46 238.87 48.38
  A 0.29 0.29 0.0 0 0 238.85 48.65
  Q 238.97 48.93 239.18 48.95
  Q 239.36 48.97 239.59 48.75
  Q 240.61 47.81 241.67 46.86
  Q 242.07 46.50 242.07 45.95
  L 242.10 41.31
  A 0.59 0.57 9.0 0 0 241.69 40.76
  Q 240.29 40.33 239.32 41.37
  Q 239.20 41.50 239.19 41.65
  Q 239.18 41.97 239.47 42.09
  A 0.37 0.33 47.9 0 0 239.67 42.11
  Q 240.10 42.01 240.59 42.05
  A 0.77 0.77 0.0 0 1 240.97 43.45
  L 238.98 44.84
  A 0.28 0.28 0.0 0 0 239.23 45.34
  L 240.20 45.04
  Q 240.87 44.83 241.00 45.51"
/>
<path stroke="#a3ccce" vector-effect="non-scaling-stroke" d="
  M 218.00 53.05
  Q 219.85 53.75 218.00 54.46
  L 215.99 55.23
  A 0.76 0.76 0.0 0 0 215.51 55.98
  L 215.53 56.27
  Q 215.56 56.58 215.86 56.52
  L 217.47 56.22
  Q 218.02 56.11 218.18 56.65
  Q 218.52 57.72 219.65 57.83
  Q 220.30 57.90 220.30 57.24
  L 220.29 52.79
  A 1.22 1.22 0.0 0 0 219.04 51.58
  Q 217.27 51.63 215.79 52.55
  A 0.36 0.36 0.0 0 0 216.06 53.21
  Q 217.47 52.86 218.00 53.05"
/>
<path stroke="#a3ccce" vector-effect="non-scaling-stroke" d="
  M 270.36 76.08
  Q 272.58 75.79 274.16 74.29
  Q 274.34 74.12 274.19 73.92
  L 273.93 73.54
  Q 273.74 73.26 273.48 73.48
  Q 271.96 74.75 270.10 75.44
  Q 270.05 75.46 270.05 75.52
  L 270.06 75.82
  Q 270.07 76.11 270.36 76.08"
/>
<path stroke="#a3ccce" vector-effect="non-scaling-stroke" d="
  M 250.20 80.24
  Q 250.62 80.77 251.23 81.08
  Q 251.72 81.33 252.17 81.01
  L 253.07 80.37
  A 1.15 1.15 0.0 0 0 252.72 78.33
  C 250.66 77.74 248.44 78.19 246.89 79.71
  A 0.36 0.36 0.0 0 0 247.20 80.32
  L 249.41 79.94
  A 0.83 0.81 65.1 0 1 250.20 80.24"
/>
<path stroke="#a3ccce" vector-effect="non-scaling-stroke" d="
  M 276.18 80.14
  A 0.55 0.55 0.0 0 0 275.64 79.34
  Q 274.35 79.48 273.49 80.47
  Q 273.04 80.98 273.70 81.15
  Q 275.42 81.61 276.18 80.14"
/>
<path stroke="#a3ccce" vector-effect="non-scaling-stroke" d="
  M 279.1782 86.0837
  A 0.97 0.97 0.0 0 0 278.2910 85.0375
  L 277.0551 84.9359
  A 0.97 0.97 0.0 0 0 276.0089 85.8231
  L 275.8418 87.8563
  A 0.97 0.97 0.0 0 0 276.7290 88.9025
  L 277.9649 89.0041
  A 0.97 0.97 0.0 0 0 279.0111 88.1169
  L 279.1782 86.0837"
/>
</g>
<path fill="#ffffff" d="
  M 0.00 0.00
  L 340.00 0.00
  L 340.00 127.00
  L 0.00 127.00
  L 0.00 0.00
  Z
  M 5.59 107.07
  C 7.24 114.11 12.66 119.95 19.47 122.03
  Q 22.65 123.00 31.64 123.00
  Q 137.82 123.00 244.00 123.00
  Q 248.41 123.00 261.00 122.41
  C 276.87 121.66 292.67 122.03 308.50 122.09
  C 317.61 122.12 325.30 118.18 328.52 109.83
  Q 329.98 106.04 329.99 95.51
  Q 330.02 62.59 329.98 29.68
  Q 329.97 21.78 329.23 18.88
  C 327.11 10.64 318.70 4.01 310.50 4.01
  Q 170.73 3.99 30.96 4.00
  Q 22.25 4.00 18.67 5.24
  C 10.34 8.12 5.05 15.89 5.02 24.75
  Q 4.94 43.93 5.02 98.89
  Q 5.03 104.68 5.59 107.07
  Z"
/>
<path fill="#46999d" d="
  M 19.47 122.03
  C 12.66 119.95 7.24 114.11 5.59 107.07
  Q 5.03 104.68 5.02 98.89
  Q 4.94 43.93 5.02 24.75
  C 5.05 15.89 10.34 8.12 18.67 5.24
  Q 22.25 4.00 30.96 4.00
  Q 170.73 3.99 310.50 4.01
  C 318.70 4.01 327.11 10.64 329.23 18.88
  Q 329.97 21.78 329.98 29.68
  Q 330.02 62.59 329.99 95.51
  Q 329.98 106.04 328.52 109.83
  C 325.30 118.18 317.61 122.12 308.50 122.09
  C 292.67 122.03 276.87 121.66 261.00 122.41
  Q 248.41 123.00 244.00 123.00
  Q 137.82 123.00 31.64 123.00
  Q 22.65 123.00 19.47 122.03
  Z
  M 106.74 24.14
  C 135.88 24.03 164.12 34.86 186.76 52.98
  Q 189.45 55.14 197.49 62.56
  A 1.23 1.22 42.5 0 0 199.23 62.49
  L 199.43 62.28
  Q 200.71 60.90 199.38 59.57
  C 145.28 5.65 59.14 8.13 6.67 62.65
  A 1.26 1.26 0.0 0 0 6.81 64.52
  L 7.19 64.82
  Q 8.58 65.89 9.80 64.63
  Q 44.07 29.42 93.09 24.49
  C 97.41 24.06 102.23 24.16 106.74 24.14
  Z
  M 93.25 104.90
  Q 44.25 102.32 9.53 69.38
  Q 5.92 65.97 6.10 70.93
  Q 6.11 71.21 7.51 72.51
  C 55.35 117.11 128.59 121.09 180.54 81.05
  C 185.46 77.26 190.49 72.34 195.31 67.84
  A 1.57 1.57 0.0 0 0 195.58 65.87
  L 195.43 65.62
  A 1.65 1.65 0.0 0 0 192.90 65.27
  C 187.51 70.22 182.06 75.52 176.55 79.60
  Q 149.51 99.63 115.70 104.01
  Q 129.57 98.53 136.81 87.56
  C 147.65 71.12 145.32 49.09 130.86 35.63
  C 106.57 13.02 66.94 27.05 62.45 59.87
  C 60.35 75.24 67.94 91.11 81.26 99.44
  Q 86.26 102.57 93.25 104.90
  Z
  M 276.86 37.92
  L 275.42 35.10
  A 0.54 0.54 0.0 0 0 274.70 34.87
  L 274.53 34.96
  A 2.21 2.00 -27.0 0 0 273.47 37.74
  L 273.57 37.95
  A 2.21 2.00 -27.0 0 0 276.45 38.73
  L 276.62 38.65
  A 0.54 0.54 0.0 0 0 276.86 37.92
  Z
  M 212.34 46.99
  Q 211.20 49.40 208.97 50.76
  Q 207.67 51.54 209.15 51.87
  Q 210.71 52.22 212.26 50.52
  Q 212.59 50.16 212.61 49.67
  Q 212.66 48.45 213.56 47.58
  Q 213.98 47.17 214.44 47.53
  L 216.50 49.15
  A 0.86 0.85 -66.7 0 0 217.87 48.60
  Q 218.04 47.41 217.22 46.59
  Q 216.83 46.21 216.29 46.25
  Q 215.97 46.27 215.67 46.15
  Q 214.84 45.81 215.68 45.49
  L 217.81 44.69
  Q 218.21 44.54 218.39 44.94
  L 220.01 48.58
  Q 220.28 49.17 220.92 49.09
  L 225.94 48.46
  Q 226.47 48.39 226.50 47.86
  Q 226.66 45.19 228.65 43.46
  Q 229.07 43.09 228.62 42.75
  C 224.87 39.95 220.10 42.31 216.55 42.89
  Q 214.48 43.23 216.16 41.97
  L 218.28 40.39
  A 0.67 0.67 0.0 0 0 218.04 39.20
  Q 216.52 38.82 215.03 39.34
  Q 213.43 39.91 214.11 38.35
  L 215.02 36.25
  Q 215.37 35.43 214.50 35.25
  L 214.16 35.18
  A 1.16 1.15 16.8 0 0 212.85 35.88
  L 210.13 42.65
  Q 209.82 43.43 210.63 43.22
  Q 211.50 42.99 212.09 42.29
  A 0.57 0.57 0.0 0 1 213.00 42.34
  Q 213.25 42.74 213.18 43.18
  Q 213.09 43.74 212.56 43.94
  L 206.76 46.05
  Q 205.92 46.36 206.42 47.11
  L 206.79 47.68
  Q 207.31 48.46 208.10 47.96
  Q 209.87 46.82 211.96 46.48
  Q 212.63 46.38 212.34 46.99
  Z
  M 297.93 53.94
  L 297.71 57.43
  A 0.56 0.55 9.3 0 1 297.01 57.93
  L 295.25 57.46
  Q 295.14 57.44 295.13 57.46
  L 294.97 57.66
  Q 294.88 57.78 294.98 57.90
  Q 296.53 59.70 298.83 60.15
  Q 299.35 60.25 299.50 59.75
  L 299.62 59.37
  A 0.36 0.36 0.0 0 1 299.92 59.12
  Q 302.80 58.79 304.43 56.36
  A 1.96 1.93 -25.3 0 0 304.76 55.46
  C 305.25 50.79 308.12 51.02 311.82 50.37
  A 0.99 0.97 5.4 0 0 312.55 49.78
  L 314.21 45.75
  A 0.97 0.96 -73.7 0 0 313.49 44.43
  C 309.99 43.81 307.42 45.24 304.27 46.28
  Q 303.78 46.44 303.86 46.94
  C 304.35 50.13 303.46 56.22 300.15 57.90
  A 0.41 0.40 -13.2 0 1 299.56 57.54
  L 299.51 51.98
  Q 299.51 51.36 300.01 51.00
  Q 301.34 50.05 300.11 48.93
  Q 299.67 48.54 300.05 48.09
  Q 300.86 47.14 301.47 46.06
  Q 302.52 44.22 301.10 43.58
  Q 300.60 43.36 300.62 42.80
  L 300.82 38.57
  A 0.88 0.88 0.0 0 0 300.09 37.66
  L 299.35 37.53
  Q 298.60 37.40 298.56 38.16
  L 298.24 44.13
  Q 298.22 44.60 297.85 44.90
  Q 296.27 46.20 294.22 46.27
  A 0.51 0.51 0.0 0 0 293.73 46.82
  C 293.88 48.50 295.49 48.66 297.11 48.52
  A 0.68 0.67 76.3 0 1 297.79 48.94
  Q 298.35 50.34 297.04 51.08
  Q 294.41 52.57 292.65 54.16
  Q 291.71 55.00 292.69 55.78
  L 293.04 56.06
  Q 293.85 56.71 294.61 56.01
  L 297.25 53.62
  A 0.41 0.40 -19.4 0 1 297.93 53.94
  Z
  M 251.20 50.12
  A 0.42 0.42 0.0 0 1 251.23 49.35
  Q 253.67 48.42 255.65 46.69
  Q 256.10 46.29 255.68 45.86
  L 255.17 45.34
  A 0.73 0.72 50.8 0 0 254.26 45.24
  C 252.94 46.10 249.70 48.73 248.04 47.87
  A 0.41 0.41 0.0 0 1 248.15 47.10
  L 251.47 46.49
  A 0.85 0.83 -86.4 0 0 252.12 45.90
  L 253.97 39.52
  A 0.77 0.76 19.8 0 0 253.53 38.60
  C 251.06 37.54 248.20 39.26 246.12 40.03
  Q 245.58 40.23 245.55 40.80
  C 245.26 46.10 244.56 52.20 245.55 57.42
  A 0.87 0.86 67.0 0 0 246.90 57.97
  Q 249.89 55.83 251.73 52.63
  A 0.78 0.78 0.0 0 1 253.15 52.78
  L 253.74 54.56
  Q 253.88 54.96 254.27 55.14
  Q 257.17 56.43 259.33 55.80
  Q 261.55 55.16 259.47 54.14
  L 251.20 50.12
  Z
  M 305.73 39.57
  L 305.94 40.83
  A 1.36 1.36 0.0 0 0 307.09 41.96
  Q 309.07 42.24 310.99 41.82
  A 0.65 0.65 0.0 0 0 311.20 40.63
  Q 309.09 39.29 306.62 38.73
  Q 305.55 38.49 305.73 39.57
  Z
  M 242.12 50.29
  L 242.02 52.29
  Q 241.98 53.12 241.26 52.72
  Q 240.94 52.54 240.67 52.72
  A 0.55 0.54 40.8 0 0 240.74 53.65
  L 243.01 54.78
  Q 243.68 55.12 243.69 54.37
  C 243.75 50.30 243.20 44.95 244.59 41.10
  A 1.52 1.51 3.9 0 0 242.84 39.10
  L 237.51 40.26
  A 0.97 0.97 0.0 0 0 236.75 41.23
  L 236.99 50.73
  Q 237.00 51.17 236.66 51.46
  L 234.73 53.05
  Q 234.12 53.56 234.69 54.10
  L 235.17 54.56
  A 0.85 0.85 0.0 0 0 236.31 54.58
  L 241.55 50.02
  Q 242.16 49.49 242.12 50.29
  Z
  M 281.69 43.00
  Q 281.27 43.57 280.68 43.90
  Q 278.40 45.16 280.75 45.04
  L 284.18 44.88
  Q 285.54 44.81 284.88 43.62
  C 281.39 37.29 276.35 39.42 271.07 41.30
  A 0.56 0.56 0.0 0 0 270.72 42.00
  L 270.81 42.27
  A 0.96 0.96 0.0 0 0 271.94 42.91
  C 274.85 42.24 279.54 38.76 281.72 42.04
  Q 282.03 42.53 281.69 43.00
  Z
  M 269.48 45.93
  C 269.39 44.95 269.18 44.61 269.54 43.62
  A 0.46 0.46 0.0 0 0 269.01 43.02
  Q 267.24 43.40 266.44 45.06
  Q 266.24 45.49 266.59 45.81
  Q 267.61 46.76 269.04 46.50
  Q 269.53 46.42 269.48 45.93
  Z
  M 278.55 46.88
  Q 278.34 45.59 278.68 44.36
  Q 278.83 43.79 278.30 43.55
  Q 277.48 43.17 276.56 43.20
  Q 276.05 43.21 276.08 43.72
  L 276.24 46.70
  A 0.58 0.58 0.0 0 1 275.78 47.29
  L 264.41 49.73
  A 0.87 0.86 -12.4 0 0 263.74 50.77
  Q 263.94 51.59 264.72 51.86
  A 0.91 0.89 -51.7 0 0 265.50 51.76
  Q 267.13 50.72 269.05 51.06
  A 1.12 1.11 -10.5 0 1 269.80 51.57
  L 271.36 54.08
  A 0.64 0.63 46.5 0 0 272.42 54.11
  Q 273.58 52.45 272.27 50.84
  A 0.42 0.42 0.0 0 1 272.57 50.16
  L 275.71 49.93
  Q 276.27 49.89 276.27 50.46
  L 276.30 56.94
  Q 276.30 58.44 274.80 58.29
  L 270.53 57.86
  Q 268.60 57.66 270.24 58.68
  Q 273.81 60.91 278.05 61.38
  Q 278.47 61.43 278.47 61.01
  L 278.57 50.24
  Q 278.58 49.65 279.16 49.60
  Q 282.03 49.33 284.77 50.25
  A 0.46 0.45 -1.8 0 0 285.34 49.65
  L 284.51 47.48
  Q 284.30 46.93 283.72 46.97
  L 279.04 47.26
  Q 278.62 47.29 278.55 46.88
  Z
  M 222.75 61.25
  C 223.46 58.09 222.53 55.04 223.59 51.90
  Q 223.76 51.39 223.30 51.13
  C 220.19 49.40 217.31 50.73 214.37 51.24
  Q 213.07 51.46 213.18 52.78
  L 213.64 58.53
  Q 213.75 59.86 215.00 59.37
  Q 216.35 58.84 217.75 58.78
  Q 218.27 58.76 218.63 59.13
  Q 220.18 60.69 222.22 61.52
  Q 222.65 61.70 222.75 61.25
  Z
  M 276.76 74.73
  Q 275.38 74.09 276.74 73.68
  L 281.55 72.22
  A 0.52 0.51 -39.7 0 0 281.64 71.27
  L 280.27 70.56
  Q 279.75 70.29 279.32 70.69
  Q 277.98 71.94 277.13 72.29
  Q 275.23 73.05 276.17 71.21
  L 276.75 70.08
  Q 277.06 69.47 276.43 69.21
  Q 275.41 68.79 274.35 68.82
  Q 273.74 68.83 273.84 69.43
  Q 274.25 71.91 273.21 72.23
  Q 271.24 72.84 269.07 73.32
  Q 268.46 73.46 268.78 74.00
  Q 269.43 75.13 269.69 76.41
  Q 269.81 76.96 270.37 76.99
  Q 274.52 77.17 278.53 76.17
  Q 280.51 75.68 282.10 76.52
  A 0.70 0.70 0.0 0 1 282.14 77.74
  L 280.96 78.47
  A 0.37 0.37 0.0 0 0 281.11 79.15
  Q 283.05 79.41 284.97 79.05
  A 0.50 0.49 -18.9 0 0 285.33 78.33
  Q 283.27 74.41 278.77 74.83
  Q 277.27 74.97 276.76 74.73
  Z
  M 305.78 87.14
  L 306.03 95.45
  Q 306.05 96.06 306.66 96.00
  L 307.09 95.96
  Q 307.72 95.91 307.72 95.27
  L 307.79 86.51
  Q 307.79 86.05 308.25 86.00
  Q 310.96 85.68 313.55 86.47
  A 0.84 0.84 0.0 0 0 314.58 85.38
  C 313.58 82.61 310.92 83.92 308.66 83.71
  Q 307.99 83.65 308.12 83.00
  L 308.18 82.68
  Q 308.31 81.99 308.99 81.85
  L 311.83 81.22
  Q 312.47 81.08 312.35 80.43
  C 312.01 78.64 310.05 78.96 308.69 79.00
  A 0.49 0.48 3.0 0 1 308.19 78.45
  Q 308.29 77.77 309.02 77.49
  Q 310.80 76.80 312.62 76.31
  A 0.69 0.69 0.0 0 0 312.97 75.21
  L 312.31 74.42
  A 1.21 1.21 0.0 0 0 310.72 74.18
  L 308.76 75.46
  A 0.43 0.43 0.0 0 1 308.10 75.14
  Q 307.94 73.22 308.42 71.40
  Q 308.56 70.84 308.04 70.59
  Q 307.25 70.20 306.36 70.26
  Q 305.89 70.29 305.88 70.76
  L 305.75 79.17
  Q 305.74 79.66 305.31 79.91
  Q 303.52 80.95 301.48 81.31
  Q 300.73 81.44 301.13 82.09
  L 301.33 82.43
  Q 301.88 83.35 302.90 83.03
  L 305.06 82.35
  A 0.43 0.43 0.0 0 1 305.62 82.72
  L 305.65 82.98
  Q 305.71 83.61 305.12 83.82
  L 299.36 85.87
  A 0.52 0.51 71.9 0 0 299.04 86.51
  L 299.15 86.85
  A 0.69 0.69 0.0 0 0 299.90 87.32
  L 305.14 86.59
  Q 305.77 86.50 305.78 87.14
  Z
  M 248.74 70.60
  Q 244.31 72.22 240.34 74.66
  Q 238.97 75.50 240.55 75.82
  Q 242.45 76.20 244.93 74.24
  C 246.77 72.78 248.07 72.77 250.26 72.15
  A 0.57 0.56 59.6 0 0 250.50 71.21
  L 250.22 70.92
  A 1.42 1.41 57.1 0 0 248.74 70.60
  Z
  M 213.17 89.48
  Q 214.25 87.71 214.96 85.75
  Q 215.87 83.23 213.93 85.08
  L 212.20 86.72
  A 0.42 0.42 0.0 0 1 211.49 86.43
  Q 211.38 83.78 212.80 81.63
  A 0.98 0.98 0.0 0 0 212.41 80.21
  Q 211.08 79.55 209.97 80.42
  Q 209.59 80.72 209.12 80.84
  L 205.27 81.83
  Q 204.58 82.01 204.80 82.69
  L 205.37 84.38
  A 0.44 0.44 0.0 0 0 206.05 84.60
  Q 207.03 83.90 208.25 83.74
  A 1.33 1.32 -86.7 0 1 209.70 85.38
  Q 208.90 88.50 209.93 91.59
  Q 210.11 92.14 210.57 91.77
  L 212.24 90.42
  A 0.42 0.42 0.0 0 1 212.91 90.65
  Q 213.06 91.37 213.59 91.90
  Q 213.96 92.27 214.47 92.11
  Q 221.37 89.87 228.53 91.04
  Q 229.58 91.21 229.24 90.20
  L 228.82 88.97
  Q 228.49 88.01 227.47 88.01
  L 223.24 87.98
  Q 222.03 87.98 221.84 86.78
  Q 220.94 80.86 225.62 80.06
  Q 227.15 79.79 226.76 77.78
  Q 226.55 76.72 225.58 77.20
  Q 224.13 77.90 222.53 77.99
  Q 221.98 78.03 222.02 77.47
  L 222.35 72.94
  Q 222.42 71.89 221.42 71.56
  L 220.81 71.37
  Q 219.37 70.90 219.33 72.42
  L 219.02 87.20
  A 1.72 1.71 -12.6 0 1 218.07 88.68
  Q 215.90 89.74 213.53 90.04
  A 0.37 0.37 0.0 0 1 213.17 89.48
  Z
  M 210.38 75.31
  A 0.88 0.88 0.0 0 0 210.95 76.19
  Q 212.49 76.75 214.13 76.69
  A 0.78 0.78 0.0 0 0 214.77 75.50
  L 212.74 72.23
  A 1.19 1.18 31.1 0 0 210.55 72.77
  L 210.38 75.31
  Z
  M 295.75 83.63
  L 295.70 91.86
  Q 295.70 92.65 296.47 92.82
  L 296.87 92.91
  Q 297.53 93.06 297.58 92.39
  L 298.27 82.86
  Q 298.31 82.36 297.83 82.21
  Q 296.28 81.69 296.54 80.30
  Q 296.67 79.62 297.56 78.69
  Q 299.46 76.70 300.61 74.42
  Q 300.99 73.67 300.24 73.29
  L 299.40 72.87
  A 0.94 0.93 25.5 0 0 298.12 73.32
  Q 295.71 78.80 291.90 83.42
  Q 291.32 84.14 292.24 84.10
  Q 293.66 84.05 294.72 83.15
  A 0.63 0.62 -19.9 0 1 295.75 83.63
  Z
  M 242.44 78.17
  L 243.39 77.09
  Q 243.69 76.76 243.50 76.36
  Q 243.31 75.94 242.74 76.01
  Q 241.58 76.16 240.32 77.28
  Q 239.91 77.63 240.26 78.04
  L 240.85 78.75
  Q 241.26 79.22 240.75 79.58
  L 236.85 82.37
  Q 235.37 83.43 237.00 84.24
  L 238.21 84.84
  Q 238.75 85.11 238.83 84.51
  L 239.17 81.80
  Q 239.25 81.20 239.85 81.15
  Q 241.86 80.95 243.67 80.03
  A 0.47 0.46 73.8 0 1 244.34 80.40
  L 244.38 80.73
  Q 244.46 81.48 243.76 81.74
  L 240.59 82.92
  Q 239.98 83.15 240.20 83.75
  Q 240.68 85.10 242.08 85.12
  Q 242.76 85.14 242.37 85.69
  Q 239.70 89.48 235.42 91.22
  A 0.43 0.43 0.0 0 0 235.60 92.04
  L 238.65 91.90
  Q 239.14 91.88 239.43 91.49
  L 241.71 88.53
  A 1.79 1.78 -56.9 0 1 243.97 88.05
  L 244.81 88.50
  Q 245.83 89.05 244.85 89.68
  Q 243.04 90.82 240.99 91.32
  A 0.41 0.41 0.0 0 0 240.80 92.02
  C 242.84 93.99 245.10 91.93 246.76 90.67
  A 1.12 1.10 27.9 0 1 247.51 90.45
  Q 250.26 90.65 250.54 93.21
  Q 250.59 93.72 251.07 93.92
  Q 254.61 95.36 257.05 94.60
  Q 259.51 93.84 257.09 92.96
  L 250.39 90.54
  Q 248.13 89.72 249.42 87.69
  L 250.53 85.94
  A 0.58 0.58 0.0 0 0 250.05 85.05
  L 246.15 85.01
  A 0.39 0.39 0.0 0 0 245.94 85.74
  L 247.24 86.52
  Q 247.46 86.66 247.37 86.90
  L 247.23 87.32
  Q 247.08 87.74 246.67 87.55
  L 245.23 86.88
  A 1.34 1.34 0.0 0 1 245.30 84.43
  Q 247.68 83.46 249.93 83.12
  C 251.71 82.86 254.03 83.36 256.23 82.88
  Q 256.68 82.78 256.54 82.34
  Q 255.00 77.43 250.02 76.77
  Q 249.15 76.66 249.84 76.12
  L 251.53 74.80
  A 0.75 0.74 63.7 0 0 251.79 74.03
  Q 251.56 73.18 250.73 73.00
  A 0.97 0.97 0.0 0 0 249.72 73.40
  C 247.57 76.56 246.61 77.73 242.71 78.62
  Q 241.86 78.81 242.44 78.17
  Z
  M 244.83 75.58
  A 0.55 0.54 58.9 0 0 244.65 76.35
  L 244.84 76.63
  A 0.74 0.74 0.0 0 0 245.74 76.92
  Q 247.00 76.40 247.19 75.02
  A 0.42 0.42 0.0 0 0 246.57 74.59
  L 244.83 75.58
  Z
  M 302.02 79.89
  C 303.26 79.66 304.56 77.95 305.36 76.88
  Q 305.59 76.57 305.32 76.30
  Q 305.21 76.20 305.04 76.16
  Q 304.80 76.11 304.43 76.29
  Q 302.67 77.14 301.09 77.23
  Q 300.07 77.30 300.43 78.25
  L 300.80 79.21
  Q 301.13 80.07 302.02 79.89
  Z
  M 265.86 80.73
  Q 266.91 81.16 268.06 80.95
  Q 268.62 80.85 268.46 80.30
  Q 268.21 79.44 268.38 78.54
  A 0.50 0.50 0.0 0 0 267.79 77.95
  Q 266.21 78.25 265.48 79.71
  A 0.74 0.74 0.0 0 0 265.86 80.73
  Z
  M 276.48 90.31
  L 278.90 91.20
  Q 280.04 91.63 280.40 90.46
  L 281.92 85.57
  Q 282.24 84.51 281.19 84.18
  Q 279.00 83.49 276.71 83.77
  A 0.30 0.30 0.0 0 1 276.55 83.20
  L 277.87 82.61
  A 0.76 0.74 -4.0 0 0 278.27 82.16
  Q 278.73 80.75 279.84 79.78
  Q 280.40 79.29 279.75 78.91
  C 276.81 77.19 274.22 78.20 271.20 79.10
  Q 270.70 79.25 270.78 79.76
  Q 271.14 82.07 273.10 83.15
  Q 274.24 83.77 273.00 84.15
  L 269.60 85.22
  Q 269.07 85.38 269.17 85.92
  L 269.83 89.87
  Q 269.93 90.46 270.52 90.41
  Q 271.02 90.37 271.33 89.99
  Q 271.60 89.65 271.60 88.92
  Q 271.60 87.74 271.66 86.77
  A 0.82 0.81 -5.5 0 1 272.27 86.04
  L 273.32 85.77
  A 0.59 0.58 82.8 0 1 274.05 86.34
  L 273.96 94.86
  Q 273.96 95.28 274.32 95.47
  Q 275.23 95.96 275.70 94.95
  Q 276.38 93.51 276.01 90.69
  Q 275.93 90.11 276.48 90.31
  Z"
/>
<path fill="#bbe0e3" d="
  M 106.74 24.14
  C 102.23 24.16 97.41 24.06 93.09 24.49
  Q 44.07 29.42 9.80 64.63
  Q 8.58 65.89 7.19 64.82
  L 6.81 64.52
  A 1.26 1.26 0.0 0 1 6.67 62.65
  C 59.14 8.13 145.28 5.65 199.38 59.57
  Q 200.71 60.90 199.43 62.28
  L 199.23 62.49
  A 1.23 1.22 42.5 0 1 197.49 62.56
  Q 189.45 55.14 186.76 52.98
  C 164.12 34.86 135.88 24.03 106.74 24.14
  Z"
/>
<path fill="#ffffff" d="
  M 115.70 104.01
  Q 113.76 103.94 111.66 104.56
  Q 108.98 105.34 107.73 105.44
  Q 100.59 106.02 93.25 104.90
  Q 86.26 102.57 81.26 99.44
  C 67.94 91.11 60.35 75.24 62.45 59.87
  C 66.94 27.05 106.57 13.02 130.86 35.63
  C 145.32 49.09 147.65 71.12 136.81 87.56
  Q 129.57 98.53 115.70 104.01
  Z
  M 79.84 79.00
  Q 78.66 76.08 77.13 74.88
  Q 75.32 73.47 73.99 75.10
  Q 73.65 75.51 73.16 75.31
  Q 72.78 75.16 72.50 74.83
  Q 72.16 74.44 71.65 74.46
  Q 70.48 74.52 69.89 75.55
  A 1.39 1.38 46.2 0 0 69.87 76.89
  Q 72.74 82.20 76.20 87.19
  C 80.58 93.50 84.20 93.26 91.14 94.37
  A 1.50 1.45 -16.3 0 1 91.98 94.81
  L 95.91 99.14
  Q 96.26 99.52 96.77 99.51
  L 112.65 99.46
  Q 113.13 99.46 113.45 99.11
  L 117.46 94.69
  A 0.86 0.81 14.8 0 1 117.94 94.43
  C 121.03 93.91 124.55 93.71 127.31 92.62
  C 132.41 90.61 136.87 81.86 139.58 76.87
  A 1.41 1.39 38.6 0 0 139.39 75.27
  Q 138.05 73.76 136.64 75.13
  A 0.99 0.99 0.0 0 1 135.20 75.07
  Q 133.57 73.19 131.67 75.44
  Q 129.37 78.18 127.25 81.08
  Q 127.00 81.42 126.62 81.57
  L 121.88 83.46
  A 1.03 1.01 38.4 0 1 121.32 83.52
  C 114.90 82.27 109.03 89.12 105.16 93.30
  A 0.49 0.49 0.0 0 1 104.45 93.31
  Q 99.85 88.56 94.51 84.41
  Q 92.32 82.71 87.98 83.50
  Q 87.48 83.59 87.04 83.36
  C 84.46 82.05 82.11 81.86 80.62 79.08
  Q 83.31 71.23 85.72 63.56
  C 86.35 61.55 87.29 60.54 89.30 60.16
  A 0.35 0.34 -4.8 0 1 89.71 60.50
  L 89.62 67.20
  Q 89.48 67.93 89.67 68.72
  L 89.81 70.41
  Q 89.71 73.50 90.77 76.89
  A 1.25 1.19 -41.9 0 1 90.70 77.78
  Q 90.36 78.51 90.42 79.24
  Q 90.47 79.79 91.01 79.76
  L 93.97 79.65
  A 0.72 0.72 0.0 0 0 94.65 78.79
  Q 93.98 75.47 94.82 72.18
  Q 94.94 71.73 95.40 71.64
  Q 95.68 71.59 95.91 71.77
  Q 96.17 71.99 96.15 72.55
  Q 96.06 75.81 96.11 79.10
  Q 96.12 79.80 96.82 79.77
  L 99.97 79.66
  A 0.52 0.52 0.0 0 0 100.30 78.76
  Q 99.90 78.40 99.75 77.91
  Q 99.62 77.49 99.73 77.06
  L 102.04 68.22
  L 102.22 66.84
  Q 102.27 66.41 102.71 66.40
  L 105.70 66.36
  L 105.89 69.21
  L 107.20 77.23
  A 1.20 1.18 56.2 0 1 107.05 78.03
  Q 106.76 78.48 106.77 79.02
  Q 106.77 79.77 107.53 79.76
  L 110.70 79.72
  A 0.50 0.50 0.0 0 0 111.18 79.09
  Q 110.20 75.58 111.08 72.02
  Q 111.57 70.05 112.20 71.98
  Q 113.11 74.75 112.12 79.25
  A 0.42 0.41 6.1 0 0 112.53 79.75
  L 115.98 79.75
  A 0.66 0.66 0.0 0 0 116.64 79.12
  Q 116.66 78.37 116.36 77.67
  A 1.26 1.25 -48.9 0 1 116.31 76.87
  L 117.98 70.76
  L 118.26 68.86
  L 116.91 60.65
  Q 116.68 59.20 117.15 58.08
  Q 117.36 57.59 117.88 57.48
  C 120.13 57.03 123.42 56.97 123.09 53.62
  Q 123.03 53.06 123.44 52.67
  L 124.72 51.41
  A 1.73 1.72 64.1 0 0 125.22 49.96
  L 125.17 49.62
  A 0.50 0.49 -22.2 0 0 124.38 49.29
  L 120.53 52.16
  Q 117.71 53.33 115.42 52.72
  A 0.67 0.67 0.0 0 1 115.10 51.61
  C 119.20 47.31 113.86 41.08 109.72 44.65
  Q 106.42 47.50 108.97 51.41
  Q 109.29 51.89 108.72 51.94
  L 108.18 51.99
  Q 107.53 52.04 107.46 52.69
  Q 107.29 54.32 105.87 55.16
  Q 105.44 55.42 105.15 55.01
  L 100.13 47.81
  Q 99.86 47.42 100.31 47.25
  Q 104.06 45.86 102.41 41.77
  C 100.55 37.16 91.95 41.79 95.59 45.97
  Q 95.92 46.34 95.52 46.64
  C 91.36 49.87 86.08 53.58 85.04 59.42
  Q 84.94 59.97 84.55 60.36
  Q 83.80 61.13 84.20 62.15
  Q 84.38 62.64 84.24 63.14
  L 79.84 79.00
  Z"
/>
<path fill="#ffffff" d="
  M 276.86 37.92
  A 0.54 0.54 0.0 0 1 276.62 38.65
  L 276.45 38.73
  A 2.21 2.00 -27.0 0 1 273.57 37.95
  L 273.47 37.74
  A 2.21 2.00 -27.0 0 1 274.53 34.96
  L 274.70 34.87
  A 0.54 0.54 0.0 0 1 275.42 35.10
  L 276.86 37.92
  Z"
/>
<path fill="#ffffff" d="
  M 211.96 46.48
  Q 209.87 46.82 208.10 47.96
  Q 207.31 48.46 206.79 47.68
  L 206.42 47.11
  Q 205.92 46.36 206.76 46.05
  L 212.56 43.94
  Q 213.09 43.74 213.18 43.18
  Q 213.25 42.74 213.00 42.34
  A 0.57 0.57 0.0 0 0 212.09 42.29
  Q 211.50 42.99 210.63 43.22
  Q 209.82 43.43 210.13 42.65
  L 212.85 35.88
  A 1.16 1.15 16.8 0 1 214.16 35.18
  L 214.50 35.25
  Q 215.37 35.43 215.02 36.25
  L 214.11 38.35
  Q 213.43 39.91 215.03 39.34
  Q 216.52 38.82 218.04 39.20
  A 0.67 0.67 0.0 0 1 218.28 40.39
  L 216.16 41.97
  Q 214.48 43.23 216.55 42.89
  C 220.10 42.31 224.87 39.95 228.62 42.75
  Q 229.07 43.09 228.65 43.46
  Q 226.66 45.19 226.50 47.86
  Q 226.47 48.39 225.94 48.46
  L 220.92 49.09
  Q 220.28 49.17 220.01 48.58
  L 218.39 44.94
  Q 218.21 44.54 217.81 44.69
  L 215.68 45.49
  Q 214.84 45.81 215.67 46.15
  Q 215.97 46.27 216.29 46.25
  Q 216.83 46.21 217.22 46.59
  Q 218.04 47.41 217.87 48.60
  A 0.86 0.85 -66.7 0 1 216.50 49.15
  L 214.44 47.53
  Q 213.98 47.17 213.56 47.58
  Q 212.66 48.45 212.61 49.67
  Q 212.59 50.16 212.26 50.52
  Q 210.71 52.22 209.15 51.87
  Q 207.67 51.54 208.97 50.76
  Q 211.20 49.40 212.34 46.99
  Q 212.63 46.38 211.96 46.48
  Z
  M 221.4510 46.1131
  A 1.74 1.16 139.8 0 0 223.5287 45.8760
  A 1.74 1.16 139.8 0 0 224.1090 43.8669
  A 1.74 1.16 139.8 0 0 222.0313 44.1040
  A 1.74 1.16 139.8 0 0 221.4510 46.1131
  Z"
/>
<path fill="#ffffff" d="
  M 297.25 53.62
  L 294.61 56.01
  Q 293.85 56.71 293.04 56.06
  L 292.69 55.78
  Q 291.71 55.00 292.65 54.16
  Q 294.41 52.57 297.04 51.08
  Q 298.35 50.34 297.79 48.94
  A 0.68 0.67 76.3 0 0 297.11 48.52
  C 295.49 48.66 293.88 48.50 293.73 46.82
  A 0.51 0.51 0.0 0 1 294.22 46.27
  Q 296.27 46.20 297.85 44.90
  Q 298.22 44.60 298.24 44.13
  L 298.56 38.16
  Q 298.60 37.40 299.35 37.53
  L 300.09 37.66
  A 0.88 0.88 0.0 0 1 300.82 38.57
  L 300.62 42.80
  Q 300.60 43.36 301.10 43.58
  Q 302.52 44.22 301.47 46.06
  Q 300.86 47.14 300.05 48.09
  Q 299.67 48.54 300.11 48.93
  Q 301.34 50.05 300.01 51.00
  Q 299.51 51.36 299.51 51.98
  L 299.56 57.54
  A 0.41 0.40 -13.2 0 0 300.15 57.90
  C 303.46 56.22 304.35 50.13 303.86 46.94
  Q 303.78 46.44 304.27 46.28
  C 307.42 45.24 309.99 43.81 313.49 44.43
  A 0.97 0.96 -73.7 0 1 314.21 45.75
  L 312.55 49.78
  A 0.99 0.97 5.4 0 1 311.82 50.37
  C 308.12 51.02 305.25 50.79 304.76 55.46
  A 1.96 1.93 -25.3 0 1 304.43 56.36
  Q 302.80 58.79 299.92 59.12
  A 0.36 0.36 0.0 0 0 299.62 59.37
  L 299.50 59.75
  Q 299.35 60.25 298.83 60.15
  Q 296.53 59.70 294.98 57.90
  Q 294.88 57.78 294.97 57.66
  L 295.13 57.46
  Q 295.14 57.44 295.25 57.46
  L 297.01 57.93
  A 0.56 0.55 9.3 0 0 297.71 57.43
  L 297.93 53.94
  A 0.41 0.40 -19.4 0 0 297.25 53.62
  Z
  M 310.3491 46.0547
  A 1.84 1.04 -27.7 0 0 308.2366 45.9892
  A 1.84 1.04 -27.7 0 0 307.0909 47.7653
  A 1.84 1.04 -27.7 0 0 309.2034 47.8308
  A 1.84 1.04 -27.7 0 0 310.3491 46.0547
  Z"
/>
<path fill="#ffffff" d="
  M 251.20 50.12
  L 259.47 54.14
  Q 261.55 55.16 259.33 55.80
  Q 257.17 56.43 254.27 55.14
  Q 253.88 54.96 253.74 54.56
  L 253.15 52.78
  A 0.78 0.78 0.0 0 0 251.73 52.63
  Q 249.89 55.83 246.90 57.97
  A 0.87 0.86 67.0 0 1 245.55 57.42
  C 244.56 52.20 245.26 46.10 245.55 40.80
  Q 245.58 40.23 246.12 40.03
  C 248.20 39.26 251.06 37.54 253.53 38.60
  A 0.77 0.76 19.8 0 1 253.97 39.52
  L 252.12 45.90
  A 0.85 0.83 -86.4 0 1 251.47 46.49
  L 248.15 47.10
  A 0.41 0.41 0.0 0 0 248.04 47.87
  C 249.70 48.73 252.94 46.10 254.26 45.24
  A 0.73 0.72 50.8 0 1 255.17 45.34
  L 255.68 45.86
  Q 256.10 46.29 255.65 46.69
  Q 253.67 48.42 251.23 49.35
  A 0.42 0.42 0.0 0 0 251.20 50.12
  Z
  M 249.64 43.67
  Q 249.27 44.07 247.92 44.70
  Q 247.73 44.79 247.73 44.93
  Q 247.72 45.37 248.15 45.27
  Q 251.66 44.45 250.88 40.63
  Q 250.67 39.62 249.71 40.00
  Q 248.63 40.42 247.77 41.25
  A 0.43 0.43 0.0 0 0 248.01 41.98
  Q 248.39 42.03 248.74 41.95
  A 1.04 1.00 -73.7 0 1 249.64 43.67
  Z
  M 246.68 54.33
  Q 246.81 55.31 247.68 54.83
  Q 249.28 53.96 250.30 52.48
  A 0.83 0.82 43.1 0 0 250.26 51.48
  Q 249.17 50.16 247.50 49.93
  A 0.57 0.57 0.0 0 0 246.87 50.36
  Q 246.41 52.34 246.68 54.33
  Z"
/>
<path fill="#ffffff" d="
  M 306.62 38.73
  Q 309.09 39.29 311.20 40.63
  A 0.65 0.65 0.0 0 1 310.99 41.82
  Q 309.07 42.24 307.09 41.96
  A 1.36 1.36 0.0 0 1 305.94 40.83
  L 305.73 39.57
  Q 305.55 38.49 306.62 38.73
  Z"
/>
<path fill="#ffffff" d="
  M 241.55 50.02
  L 236.31 54.58
  A 0.85 0.85 0.0 0 1 235.17 54.56
  L 234.69 54.10
  Q 234.12 53.56 234.73 53.05
  L 236.66 51.46
  Q 237.00 51.17 236.99 50.73
  L 236.75 41.23
  A 0.97 0.97 0.0 0 1 237.51 40.26
  L 242.84 39.10
  A 1.52 1.51 3.9 0 1 244.59 41.10
  C 243.20 44.95 243.75 50.30 243.69 54.37
  Q 243.68 55.12 243.01 54.78
  L 240.74 53.65
  A 0.55 0.54 40.8 0 1 240.67 52.72
  Q 240.94 52.54 241.26 52.72
  Q 241.98 53.12 242.02 52.29
  L 242.12 50.29
  Q 242.16 49.49 241.55 50.02
  Z
  M 241.00 45.51
  Q 241.06 45.81 240.99 46.11
  Q 240.91 46.46 240.42 46.81
  Q 239.50 47.46 238.87 48.38
  A 0.29 0.29 0.0 0 0 238.85 48.65
  Q 238.97 48.93 239.18 48.95
  Q 239.36 48.97 239.59 48.75
  Q 240.61 47.81 241.67 46.86
  Q 242.07 46.50 242.07 45.95
  L 242.10 41.31
  A 0.59 0.57 9.0 0 0 241.69 40.76
  Q 240.29 40.33 239.32 41.37
  Q 239.20 41.50 239.19 41.65
  Q 239.18 41.97 239.47 42.09
  A 0.37 0.33 47.9 0 0 239.67 42.11
  Q 240.10 42.01 240.59 42.05
  A 0.77 0.77 0.0 0 1 240.97 43.45
  L 238.98 44.84
  A 0.28 0.28 0.0 0 0 239.23 45.34
  L 240.20 45.04
  Q 240.87 44.83 241.00 45.51
  Z"
/>
<path fill="#ffffff" d="
  M 281.72 42.04
  C 279.54 38.76 274.85 42.24 271.94 42.91
  A 0.96 0.96 0.0 0 1 270.81 42.27
  L 270.72 42.00
  A 0.56 0.56 0.0 0 1 271.07 41.30
  C 276.35 39.42 281.39 37.29 284.88 43.62
  Q 285.54 44.81 284.18 44.88
  L 280.75 45.04
  Q 278.40 45.16 280.68 43.90
  Q 281.27 43.57 281.69 43.00
  Q 282.03 42.53 281.72 42.04
  Z"
/>
<path fill="#ee9c45" d="
  M 120.53 52.16
  Q 119.47 52.98 118.99 53.94
  Q 118.85 54.24 118.57 54.43
  L 115.95 56.14
  Q 115.50 56.43 114.99 56.60
  C 114.03 56.93 113.27 57.26 112.19 57.37
  Q 111.57 57.43 111.09 57.87
  A 1.98 1.96 -75.1 0 1 110.41 58.27
  C 108.88 58.75 107.34 59.63 105.81 59.62
  Q 105.41 59.62 105.04 59.76
  Q 103.79 60.21 102.47 60.34
  A 2.44 2.44 0.0 0 0 100.27 62.71
  Q 100.21 65.55 96.80 64.90
  Q 97.75 64.20 97.39 62.82
  A 1.60 1.59 -87.1 0 0 96.41 61.73
  Q 94.33 60.93 93.05 62.49
  A 1.69 1.68 21.2 0 0 94.26 65.23
  L 95.98 65.33
  Q 93.75 65.89 91.85 64.92
  A 0.77 0.75 13.6 0 1 91.44 64.27
  L 91.39 60.70
  Q 91.38 60.45 91.14 60.40
  L 90.63 60.31
  Q 90.37 60.26 90.34 60.52
  L 89.62 67.20
  L 89.71 60.50
  A 0.35 0.34 -4.8 0 0 89.30 60.16
  C 87.29 60.54 86.35 61.55 85.72 63.56
  Q 83.31 71.23 80.62 79.08
  Q 79.71 78.12 79.84 79.00
  L 84.24 63.14
  Q 84.38 62.64 84.20 62.15
  Q 83.80 61.13 84.55 60.36
  Q 84.94 59.97 85.04 59.42
  C 86.08 53.58 91.36 49.87 95.52 46.64
  Q 95.92 46.34 95.59 45.97
  C 91.95 41.79 100.55 37.16 102.41 41.77
  Q 104.06 45.86 100.31 47.25
  Q 99.86 47.42 100.13 47.81
  L 105.15 55.01
  Q 105.44 55.42 105.87 55.16
  Q 107.29 54.32 107.46 52.69
  Q 107.53 52.04 108.18 51.99
  L 108.72 51.94
  Q 109.29 51.89 108.97 51.41
  Q 106.42 47.50 109.72 44.65
  C 113.86 41.08 119.20 47.31 115.10 51.61
  A 0.67 0.67 0.0 0 0 115.42 52.72
  Q 117.71 53.33 120.53 52.16
  Z"
/>
<path fill="#46999d" d="
  M 249.64 43.67
  A 1.04 1.00 -73.7 0 0 248.74 41.95
  Q 248.39 42.03 248.01 41.98
  A 0.43 0.43 0.0 0 1 247.77 41.25
  Q 248.63 40.42 249.71 40.00
  Q 250.67 39.62 250.88 40.63
  Q 251.66 44.45 248.15 45.27
  Q 247.72 45.37 247.73 44.93
  Q 247.73 44.79 247.92 44.70
  Q 249.27 44.07 249.64 43.67
  Z"
/>
<path fill="#46999d" d="
  M 240.20 45.04
  L 239.23 45.34
  A 0.28 0.28 0.0 0 1 238.98 44.84
  L 240.97 43.45
  A 0.77 0.77 0.0 0 0 240.59 42.05
  Q 240.10 42.01 239.67 42.11
  A 0.37 0.33 47.9 0 1 239.47 42.09
  Q 239.18 41.97 239.19 41.65
  Q 239.20 41.50 239.32 41.37
  Q 240.29 40.33 241.69 40.76
  A 0.59 0.57 9.0 0 1 242.10 41.31
  L 242.07 45.95
  Q 242.07 46.50 241.67 46.86
  Q 240.61 47.81 239.59 48.75
  Q 239.36 48.97 239.18 48.95
  Q 238.97 48.93 238.85 48.65
  A 0.29 0.29 0.0 0 1 238.87 48.38
  Q 239.50 47.46 240.42 46.81
  Q 240.91 46.46 240.99 46.11
  Q 241.06 45.81 241.00 45.51
  Q 240.87 44.83 240.20 45.04
  Z"
/>
<path fill="#ffffff" d="
  M 269.54 43.62
  C 269.18 44.61 269.39 44.95 269.48 45.93
  Q 269.53 46.42 269.04 46.50
  Q 267.61 46.76 266.59 45.81
  Q 266.24 45.49 266.44 45.06
  Q 267.24 43.40 269.01 43.02
  A 0.46 0.46 0.0 0 1 269.54 43.62
  Z"
/>
<path fill="#ffffff" d="
  M 279.04 47.26
  L 283.72 46.97
  Q 284.30 46.93 284.51 47.48
  L 285.34 49.65
  A 0.46 0.45 -1.8 0 1 284.77 50.25
  Q 282.03 49.33 279.16 49.60
  Q 278.58 49.65 278.57 50.24
  L 278.47 61.01
  Q 278.47 61.43 278.05 61.38
  Q 273.81 60.91 270.24 58.68
  Q 268.60 57.66 270.53 57.86
  L 274.80 58.29
  Q 276.30 58.44 276.30 56.94
  L 276.27 50.46
  Q 276.27 49.89 275.71 49.93
  L 272.57 50.16
  A 0.42 0.42 0.0 0 0 272.27 50.84
  Q 273.58 52.45 272.42 54.11
  A 0.64 0.63 46.5 0 1 271.36 54.08
  L 269.80 51.57
  A 1.12 1.11 -10.5 0 0 269.05 51.06
  Q 267.13 50.72 265.50 51.76
  A 0.91 0.89 -51.7 0 1 264.72 51.86
  Q 263.94 51.59 263.74 50.77
  A 0.87 0.86 -12.4 0 1 264.41 49.73
  L 275.78 47.29
  A 0.58 0.58 0.0 0 0 276.24 46.70
  L 276.08 43.72
  Q 276.05 43.21 276.56 43.20
  Q 277.48 43.17 278.30 43.55
  Q 278.83 43.79 278.68 44.36
  Q 278.34 45.59 278.55 46.88
  Q 278.62 47.29 279.04 47.26
  Z"
/>
<ellipse fill="#46999d" cx="0.00" cy="0.00" transform="translate(222.78,44.99) rotate(139.8)" rx="1.74" ry="1.16"/>
<ellipse fill="#46999d" cx="0.00" cy="0.00" transform="translate(308.72,46.91) rotate(-27.7)" rx="1.84" ry="1.04"/>
<path fill="#e67136" d="
  M 116.91 60.65
  Q 113.06 59.90 109.12 62.19
  Q 108.71 62.43 108.50 62.86
  Q 107.77 64.39 106.26 65.12
  Q 105.87 65.31 105.84 65.74
  Q 105.82 66.09 105.70 66.36
  L 102.71 66.40
  Q 102.27 66.41 102.22 66.84
  L 102.04 68.22
  Q 101.86 67.93 101.87 67.68
  A 0.02 0.01 44.4 0 1 101.90 67.68
  Q 101.97 68.56 100.87 68.44
  L 90.19 68.21
  Q 89.94 68.21 89.80 68.41
  Q 89.70 68.54 89.67 68.72
  Q 89.48 67.93 89.62 67.20
  L 90.34 60.52
  Q 90.37 60.26 90.63 60.31
  L 91.14 60.40
  Q 91.38 60.45 91.39 60.70
  L 91.44 64.27
  A 0.77 0.75 13.6 0 0 91.85 64.92
  Q 93.75 65.89 95.98 65.33
  L 96.80 64.90
  Q 100.21 65.55 100.27 62.71
  A 2.44 2.44 0.0 0 1 102.47 60.34
  Q 103.79 60.21 105.04 59.76
  Q 105.41 59.62 105.81 59.62
  C 107.34 59.63 108.88 58.75 110.41 58.27
  A 1.98 1.96 -75.1 0 0 111.09 57.87
  Q 111.57 57.43 112.19 57.37
  C 113.27 57.26 114.03 56.93 114.99 56.60
  Q 115.50 56.43 115.95 56.14
  L 118.57 54.43
  Q 118.85 54.24 118.99 53.94
  Q 119.47 52.98 120.53 52.16
  L 124.38 49.29
  A 0.50 0.49 -22.2 0 1 125.17 49.62
  L 125.22 49.96
  A 1.73 1.72 64.1 0 1 124.72 51.41
  L 123.44 52.67
  Q 123.03 53.06 123.09 53.62
  C 123.42 56.97 120.13 57.03 117.88 57.48
  Q 117.36 57.59 117.15 58.08
  Q 116.68 59.20 116.91 60.65
  Z"
/>
<path fill="#46999d" d="
  M 246.68 54.33
  Q 246.41 52.34 246.87 50.36
  A 0.57 0.57 0.0 0 1 247.50 49.93
  Q 249.17 50.16 250.26 51.48
  A 0.83 0.82 43.1 0 1 250.30 52.48
  Q 249.28 53.96 247.68 54.83
  Q 246.81 55.31 246.68 54.33
  Z"
/>
<path fill="#ffffff" d="
  M 223.59 51.90
  C 222.53 55.04 223.46 58.09 222.75 61.25
  Q 222.65 61.70 222.22 61.52
  Q 220.18 60.69 218.63 59.13
  Q 218.27 58.76 217.75 58.78
  Q 216.35 58.84 215.00 59.37
  Q 213.75 59.86 213.64 58.53
  L 213.18 52.78
  Q 213.07 51.46 214.37 51.24
  C 217.31 50.73 220.19 49.40 223.30 51.13
  Q 223.76 51.39 223.59 51.90
  Z
  M 218.00 53.05
  Q 219.85 53.75 218.00 54.46
  L 215.99 55.23
  A 0.76 0.76 0.0 0 0 215.51 55.98
  L 215.53 56.27
  Q 215.56 56.58 215.86 56.52
  L 217.47 56.22
  Q 218.02 56.11 218.18 56.65
  Q 218.52 57.72 219.65 57.83
  Q 220.30 57.90 220.30 57.24
  L 220.29 52.79
  A 1.22 1.22 0.0 0 0 219.04 51.58
  Q 217.27 51.63 215.79 52.55
  A 0.36 0.36 0.0 0 0 216.06 53.21
  Q 217.47 52.86 218.00 53.05
  Z"
/>
<path fill="#46999d" d="
  M 218.00 53.05
  Q 217.47 52.86 216.06 53.21
  A 0.36 0.36 0.0 0 1 215.79 52.55
  Q 217.27 51.63 219.04 51.58
  A 1.22 1.22 0.0 0 1 220.29 52.79
  L 220.30 57.24
  Q 220.30 57.90 219.65 57.83
  Q 218.52 57.72 218.18 56.65
  Q 218.02 56.11 217.47 56.22
  L 215.86 56.52
  Q 215.56 56.58 215.53 56.27
  L 215.51 55.98
  A 0.76 0.76 0.0 0 1 215.99 55.23
  L 218.00 54.46
  Q 219.85 53.75 218.00 53.05
  Z"
/>
<path fill="#c84c32" d="
  M 116.91 60.65
  L 118.26 68.86
  Q 115.71 67.48 112.00 68.12
  Q 109.50 68.55 107.79 68.36
  Q 107.30 68.31 106.95 68.66
  L 106.38 69.22
  Q 106.05 68.71 105.89 69.21
  L 105.70 66.36
  Q 105.82 66.09 105.84 65.74
  Q 105.87 65.31 106.26 65.12
  Q 107.77 64.39 108.50 62.86
  Q 108.71 62.43 109.12 62.19
  Q 113.06 59.90 116.91 60.65
  Z"
/>
<path fill="#ffffff" d="
  M 96.80 64.90
  L 95.98 65.33
  L 94.26 65.23
  A 1.69 1.68 21.2 0 1 93.05 62.49
  Q 94.33 60.93 96.41 61.73
  A 1.60 1.59 -87.1 0 1 97.39 62.82
  Q 97.75 64.20 96.80 64.90
  Z"
/>
<path fill="#bbe0e3" d="
  M 93.25 104.90
  Q 100.59 106.02 107.73 105.44
  Q 108.98 105.34 111.66 104.56
  Q 113.76 103.94 115.70 104.01
  Q 149.51 99.63 176.55 79.60
  C 182.06 75.52 187.51 70.22 192.90 65.27
  A 1.65 1.65 0.0 0 1 195.43 65.62
  L 195.58 65.87
  A 1.57 1.57 0.0 0 1 195.31 67.84
  C 190.49 72.34 185.46 77.26 180.54 81.05
  C 128.59 121.09 55.35 117.11 7.51 72.51
  Q 6.11 71.21 6.10 70.93
  Q 5.92 65.97 9.53 69.38
  Q 44.25 102.32 93.25 104.90
  Z"
/>
<path fill="#a1613e" d="
  M 102.04 68.22
  L 99.73 77.06
  Q 99.62 77.49 99.75 77.91
  Q 99.90 78.40 100.30 78.76
  A 0.52 0.52 0.0 0 1 99.97 79.66
  L 96.82 79.77
  Q 96.12 79.80 96.11 79.10
  Q 96.06 75.81 96.15 72.55
  Q 96.17 71.99 95.91 71.77
  Q 95.68 71.59 95.40 71.64
  Q 94.94 71.73 94.82 72.18
  Q 93.98 75.47 94.65 78.79
  A 0.72 0.72 0.0 0 1 93.97 79.65
  L 91.01 79.76
  Q 90.47 79.79 90.42 79.24
  Q 90.36 78.51 90.70 77.78
  A 1.25 1.19 -41.9 0 0 90.77 76.89
  Q 89.71 73.50 89.81 70.41
  C 92.62 70.02 94.48 69.73 97.47 70.33
  Q 101.73 71.19 100.87 68.44
  Q 101.97 68.56 101.90 67.68
  A 0.02 0.01 44.4 0 0 101.87 67.68
  Q 101.86 67.93 102.04 68.22
  Z"
/>
<path fill="#6f3b31" d="
  M 118.26 68.86
  L 117.98 70.76
  L 106.99 70.62
  Q 106.41 70.61 106.40 70.03
  L 106.38 69.22
  L 106.95 68.66
  Q 107.30 68.31 107.79 68.36
  Q 109.50 68.55 112.00 68.12
  Q 115.71 67.48 118.26 68.86
  Z"
/>
<path fill="#6f3b31" d="
  M 100.87 68.44
  Q 101.73 71.19 97.47 70.33
  C 94.48 69.73 92.62 70.02 89.81 70.41
  L 89.67 68.72
  Q 89.70 68.54 89.80 68.41
  Q 89.94 68.21 90.19 68.21
  L 100.87 68.44
  Z"
/>
<path fill="#ffffff" d="
  M 276.76 74.73
  Q 277.27 74.97 278.77 74.83
  Q 283.27 74.41 285.33 78.33
  A 0.50 0.49 -18.9 0 1 284.97 79.05
  Q 283.05 79.41 281.11 79.15
  A 0.37 0.37 0.0 0 1 280.96 78.47
  L 282.14 77.74
  A 0.70 0.70 0.0 0 0 282.10 76.52
  Q 280.51 75.68 278.53 76.17
  Q 274.52 77.17 270.37 76.99
  Q 269.81 76.96 269.69 76.41
  Q 269.43 75.13 268.78 74.00
  Q 268.46 73.46 269.07 73.32
  Q 271.24 72.84 273.21 72.23
  Q 274.25 71.91 273.84 69.43
  Q 273.74 68.83 274.35 68.82
  Q 275.41 68.79 276.43 69.21
  Q 277.06 69.47 276.75 70.08
  L 276.17 71.21
  Q 275.23 73.05 277.13 72.29
  Q 277.98 71.94 279.32 70.69
  Q 279.75 70.29 280.27 70.56
  L 281.64 71.27
  A 0.52 0.51 -39.7 0 1 281.55 72.22
  L 276.74 73.68
  Q 275.38 74.09 276.76 74.73
  Z
  M 270.36 76.08
  Q 272.58 75.79 274.16 74.29
  Q 274.34 74.12 274.19 73.92
  L 273.93 73.54
  Q 273.74 73.26 273.48 73.48
  Q 271.96 74.75 270.10 75.44
  Q 270.05 75.46 270.05 75.52
  L 270.06 75.82
  Q 270.07 76.11 270.36 76.08
  Z"
/>
<path fill="#a1613e" d="
  M 106.38 69.22
  L 106.40 70.03
  Q 106.41 70.61 106.99 70.62
  L 117.98 70.76
  L 116.31 76.87
  A 1.26 1.25 -48.9 0 0 116.36 77.67
  Q 116.66 78.37 116.64 79.12
  A 0.66 0.66 0.0 0 1 115.98 79.75
  L 112.53 79.75
  A 0.42 0.41 6.1 0 1 112.12 79.25
  Q 113.11 74.75 112.20 71.98
  Q 111.57 70.05 111.08 72.02
  Q 110.20 75.58 111.18 79.09
  A 0.50 0.50 0.0 0 1 110.70 79.72
  L 107.53 79.76
  Q 106.77 79.77 106.77 79.02
  Q 106.76 78.48 107.05 78.03
  A 1.20 1.18 56.2 0 0 107.20 77.23
  L 105.89 69.21
  Q 106.05 68.71 106.38 69.22
  Z"
/>
<path fill="#ffffff" d="
  M 305.14 86.59
  L 299.90 87.32
  A 0.69 0.69 0.0 0 1 299.15 86.85
  L 299.04 86.51
  A 0.52 0.51 71.9 0 1 299.36 85.87
  L 305.12 83.82
  Q 305.71 83.61 305.65 82.98
  L 305.62 82.72
  A 0.43 0.43 0.0 0 0 305.06 82.35
  L 302.90 83.03
  Q 301.88 83.35 301.33 82.43
  L 301.13 82.09
  Q 300.73 81.44 301.48 81.31
  Q 303.52 80.95 305.31 79.91
  Q 305.74 79.66 305.75 79.17
  L 305.88 70.76
  Q 305.89 70.29 306.36 70.26
  Q 307.25 70.20 308.04 70.59
  Q 308.56 70.84 308.42 71.40
  Q 307.94 73.22 308.10 75.14
  A 0.43 0.43 0.0 0 0 308.76 75.46
  L 310.72 74.18
  A 1.21 1.21 0.0 0 1 312.31 74.42
  L 312.97 75.21
  A 0.69 0.69 0.0 0 1 312.62 76.31
  Q 310.80 76.80 309.02 77.49
  Q 308.29 77.77 308.19 78.45
  A 0.49 0.48 3.0 0 0 308.69 79.00
  C 310.05 78.96 312.01 78.64 312.35 80.43
  Q 312.47 81.08 311.83 81.22
  L 308.99 81.85
  Q 308.31 81.99 308.18 82.68
  L 308.12 83.00
  Q 307.99 83.65 308.66 83.71
  C 310.92 83.92 313.58 82.61 314.58 85.38
  A 0.84 0.84 0.0 0 1 313.55 86.47
  Q 310.96 85.68 308.25 86.00
  Q 307.79 86.05 307.79 86.51
  L 307.72 95.27
  Q 307.72 95.91 307.09 95.96
  L 306.66 96.00
  Q 306.05 96.06 306.03 95.45
  L 305.78 87.14
  Q 305.77 86.50 305.14 86.59
  Z"
/>
<path fill="#ffffff" d="
  M 248.74 70.60
  A 1.42 1.41 57.1 0 1 250.22 70.92
  L 250.50 71.21
  A 0.57 0.56 59.6 0 1 250.26 72.15
  C 248.07 72.77 246.77 72.78 244.93 74.24
  Q 242.45 76.20 240.55 75.82
  Q 238.97 75.50 240.34 74.66
  Q 244.31 72.22 248.74 70.60
  Z"
/>
<path fill="#ffffff" d="
  M 213.53 90.04
  Q 215.90 89.74 218.07 88.68
  A 1.72 1.71 -12.6 0 0 219.02 87.20
  L 219.33 72.42
  Q 219.37 70.90 220.81 71.37
  L 221.42 71.56
  Q 222.42 71.89 222.35 72.94
  L 222.02 77.47
  Q 221.98 78.03 222.53 77.99
  Q 224.13 77.90 225.58 77.20
  Q 226.55 76.72 226.76 77.78
  Q 227.15 79.79 225.62 80.06
  Q 220.94 80.86 221.84 86.78
  Q 222.03 87.98 223.24 87.98
  L 227.47 88.01
  Q 228.49 88.01 228.82 88.97
  L 229.24 90.20
  Q 229.58 91.21 228.53 91.04
  Q 221.37 89.87 214.47 92.11
  Q 213.96 92.27 213.59 91.90
  Q 213.06 91.37 212.91 90.65
  A 0.42 0.42 0.0 0 0 212.24 90.42
  L 210.57 91.77
  Q 210.11 92.14 209.93 91.59
  Q 208.90 88.50 209.70 85.38
  A 1.33 1.32 -86.7 0 0 208.25 83.74
  Q 207.03 83.90 206.05 84.60
  A 0.44 0.44 0.0 0 1 205.37 84.38
  L 204.80 82.69
  Q 204.58 82.01 205.27 81.83
  L 209.12 80.84
  Q 209.59 80.72 209.97 80.42
  Q 211.08 79.55 212.41 80.21
  A 0.98 0.98 0.0 0 1 212.80 81.63
  Q 211.38 83.78 211.49 86.43
  A 0.42 0.42 0.0 0 0 212.20 86.72
  L 213.93 85.08
  Q 215.87 83.23 214.96 85.75
  Q 214.25 87.71 213.17 89.48
  A 0.37 0.37 0.0 0 0 213.53 90.04
  Z"
/>
<path fill="#ffffff" d="
  M 210.38 75.31
  L 210.55 72.77
  A 1.19 1.18 31.1 0 1 212.74 72.23
  L 214.77 75.50
  A 0.78 0.78 0.0 0 1 214.13 76.69
  Q 212.49 76.75 210.95 76.19
  A 0.88 0.88 0.0 0 1 210.38 75.31
  Z"
/>
<path fill="#ffffff" d="
  M 295.75 83.63
  A 0.63 0.62 -19.9 0 0 294.72 83.15
  Q 293.66 84.05 292.24 84.10
  Q 291.32 84.14 291.90 83.42
  Q 295.71 78.80 298.12 73.32
  A 0.94 0.93 25.5 0 1 299.40 72.87
  L 300.24 73.29
  Q 300.99 73.67 300.61 74.42
  Q 299.46 76.70 297.56 78.69
  Q 296.67 79.62 296.54 80.30
  Q 296.28 81.69 297.83 82.21
  Q 298.31 82.36 298.27 82.86
  L 297.58 92.39
  Q 297.53 93.06 296.87 92.91
  L 296.47 92.82
  Q 295.70 92.65 295.70 91.86
  L 295.75 83.63
  Z"
/>
<path fill="#ffffff" d="
  M 242.71 78.62
  C 246.61 77.73 247.57 76.56 249.72 73.40
  A 0.97 0.97 0.0 0 1 250.73 73.00
  Q 251.56 73.18 251.79 74.03
  A 0.75 0.74 63.7 0 1 251.53 74.80
  L 249.84 76.12
  Q 249.15 76.66 250.02 76.77
  Q 255.00 77.43 256.54 82.34
  Q 256.68 82.78 256.23 82.88
  C 254.03 83.36 251.71 82.86 249.93 83.12
  Q 247.68 83.46 245.30 84.43
  A 1.34 1.34 0.0 0 0 245.23 86.88
  L 246.67 87.55
  Q 247.08 87.74 247.23 87.32
  L 247.37 86.90
  Q 247.46 86.66 247.24 86.52
  L 245.94 85.74
  A 0.39 0.39 0.0 0 1 246.15 85.01
  L 250.05 85.05
  A 0.58 0.58 0.0 0 1 250.53 85.94
  L 249.42 87.69
  Q 248.13 89.72 250.39 90.54
  L 257.09 92.96
  Q 259.51 93.84 257.05 94.60
  Q 254.61 95.36 251.07 93.92
  Q 250.59 93.72 250.54 93.21
  Q 250.26 90.65 247.51 90.45
  A 1.12 1.10 27.9 0 0 246.76 90.67
  C 245.10 91.93 242.84 93.99 240.80 92.02
  A 0.41 0.41 0.0 0 1 240.99 91.32
  Q 243.04 90.82 244.85 89.68
  Q 245.83 89.05 244.81 88.50
  L 243.97 88.05
  A 1.79 1.78 -56.9 0 0 241.71 88.53
  L 239.43 91.49
  Q 239.14 91.88 238.65 91.90
  L 235.60 92.04
  A 0.43 0.43 0.0 0 1 235.42 91.22
  Q 239.70 89.48 242.37 85.69
  Q 242.76 85.14 242.08 85.12
  Q 240.68 85.10 240.20 83.75
  Q 239.98 83.15 240.59 82.92
  L 243.76 81.74
  Q 244.46 81.48 244.38 80.73
  L 244.34 80.40
  A 0.47 0.46 73.8 0 0 243.67 80.03
  Q 241.86 80.95 239.85 81.15
  Q 239.25 81.20 239.17 81.80
  L 238.83 84.51
  Q 238.75 85.11 238.21 84.84
  L 237.00 84.24
  Q 235.37 83.43 236.85 82.37
  L 240.75 79.58
  Q 241.26 79.22 240.85 78.75
  L 240.26 78.04
  Q 239.91 77.63 240.32 77.28
  Q 241.58 76.16 242.74 76.01
  Q 243.31 75.94 243.50 76.36
  Q 243.69 76.76 243.39 77.09
  L 242.44 78.17
  Q 241.86 78.81 242.71 78.62
  Z
  M 250.20 80.24
  Q 250.62 80.77 251.23 81.08
  Q 251.72 81.33 252.17 81.01
  L 253.07 80.37
  A 1.15 1.15 0.0 0 0 252.72 78.33
  C 250.66 77.74 248.44 78.19 246.89 79.71
  A 0.36 0.36 0.0 0 0 247.20 80.32
  L 249.41 79.94
  A 0.83 0.81 65.1 0 1 250.20 80.24
  Z"
/>
<path fill="#46999d" d="
  M 270.36 76.08
  Q 270.07 76.11 270.06 75.82
  L 270.05 75.52
  Q 270.05 75.46 270.10 75.44
  Q 271.96 74.75 273.48 73.48
  Q 273.74 73.26 273.93 73.54
  L 274.19 73.92
  Q 274.34 74.12 274.16 74.29
  Q 272.58 75.79 270.36 76.08
  Z"
/>
<path fill="#ffc4b5" d="
  M 79.84 79.00
  Q 79.71 78.12 80.62 79.08
  C 82.11 81.86 84.46 82.05 87.04 83.36
  Q 87.48 83.59 87.98 83.50
  Q 92.32 82.71 94.51 84.41
  Q 99.85 88.56 104.45 93.31
  A 0.49 0.49 0.0 0 0 105.16 93.30
  C 109.03 89.12 114.90 82.27 121.32 83.52
  A 1.03 1.01 38.4 0 0 121.88 83.46
  L 126.62 81.57
  Q 127.00 81.42 127.25 81.08
  Q 129.37 78.18 131.67 75.44
  Q 133.57 73.19 135.20 75.07
  A 0.99 0.99 0.0 0 0 136.64 75.13
  Q 138.05 73.76 139.39 75.27
  A 1.41 1.39 38.6 0 1 139.58 76.87
  C 136.87 81.86 132.41 90.61 127.31 92.62
  C 124.55 93.71 121.03 93.91 117.94 94.43
  A 0.86 0.81 14.8 0 0 117.46 94.69
  L 113.45 99.11
  Q 113.13 99.46 112.65 99.46
  L 96.77 99.51
  Q 96.26 99.52 95.91 99.14
  L 91.98 94.81
  A 1.50 1.45 -16.3 0 0 91.14 94.37
  C 84.20 93.26 80.58 93.50 76.20 87.19
  Q 72.74 82.20 69.87 76.89
  A 1.39 1.38 46.2 0 1 69.89 75.55
  Q 70.48 74.52 71.65 74.46
  Q 72.16 74.44 72.50 74.83
  Q 72.78 75.16 73.16 75.31
  Q 73.65 75.51 73.99 75.10
  Q 75.32 73.47 77.13 74.88
  Q 78.66 76.08 79.84 79.00
  Z"
/>
<path fill="#ffffff" d="
  M 244.83 75.58
  L 246.57 74.59
  A 0.42 0.42 0.0 0 1 247.19 75.02
  Q 247.00 76.40 245.74 76.92
  A 0.74 0.74 0.0 0 1 244.84 76.63
  L 244.65 76.35
  A 0.55 0.54 58.9 0 1 244.83 75.58
  Z"
/>
<path fill="#ffffff" d="
  M 305.36 76.88
  C 304.56 77.95 303.26 79.66 302.02 79.89
  Q 301.13 80.07 300.80 79.21
  L 300.43 78.25
  Q 300.07 77.30 301.09 77.23
  Q 302.67 77.14 304.43 76.29
  Q 304.80 76.11 305.04 76.16
  Q 305.21 76.20 305.32 76.30
  Q 305.59 76.57 305.36 76.88
  Z"
/>
<path fill="#46999d" d="
  M 249.41 79.94
  L 247.20 80.32
  A 0.36 0.36 0.0 0 1 246.89 79.71
  C 248.44 78.19 250.66 77.74 252.72 78.33
  A 1.15 1.15 0.0 0 1 253.07 80.37
  L 252.17 81.01
  Q 251.72 81.33 251.23 81.08
  Q 250.62 80.77 250.20 80.24
  A 0.83 0.81 65.1 0 0 249.41 79.94
  Z"
/>
<path fill="#ffffff" d="
  M 265.86 80.73
  A 0.74 0.74 0.0 0 1 265.48 79.71
  Q 266.21 78.25 267.79 77.95
  A 0.50 0.50 0.0 0 1 268.38 78.54
  Q 268.21 79.44 268.46 80.30
  Q 268.62 80.85 268.06 80.95
  Q 266.91 81.16 265.86 80.73
  Z"
/>
<path fill="#ffffff" d="
  M 276.01 90.69
  Q 276.38 93.51 275.70 94.95
  Q 275.23 95.96 274.32 95.47
  Q 273.96 95.28 273.96 94.86
  L 274.05 86.34
  A 0.59 0.58 82.8 0 0 273.32 85.77
  L 272.27 86.04
  A 0.82 0.81 -5.5 0 0 271.66 86.77
  Q 271.60 87.74 271.60 88.92
  Q 271.60 89.65 271.33 89.99
  Q 271.02 90.37 270.52 90.41
  Q 269.93 90.46 269.83 89.87
  L 269.17 85.92
  Q 269.07 85.38 269.60 85.22
  L 273.00 84.15
  Q 274.24 83.77 273.10 83.15
  Q 271.14 82.07 270.78 79.76
  Q 270.70 79.25 271.20 79.10
  C 274.22 78.20 276.81 77.19 279.75 78.91
  Q 280.40 79.29 279.84 79.78
  Q 278.73 80.75 278.27 82.16
  A 0.76 0.74 -4.0 0 1 277.87 82.61
  L 276.55 83.20
  A 0.30 0.30 0.0 0 0 276.71 83.77
  Q 279.00 83.49 281.19 84.18
  Q 282.24 84.51 281.92 85.57
  L 280.40 90.46
  Q 280.04 91.63 278.90 91.20
  L 276.48 90.31
  Q 275.93 90.11 276.01 90.69
  Z
  M 276.18 80.14
  A 0.55 0.55 0.0 0 0 275.64 79.34
  Q 274.35 79.48 273.49 80.47
  Q 273.04 80.98 273.70 81.15
  Q 275.42 81.61 276.18 80.14
  Z
  M 279.1782 86.0837
  A 0.97 0.97 0.0 0 0 278.2910 85.0375
  L 277.0551 84.9359
  A 0.97 0.97 0.0 0 0 276.0089 85.8231
  L 275.8418 87.8563
  A 0.97 0.97 0.0 0 0 276.7290 88.9025
  L 277.9649 89.0041
  A 0.97 0.97 0.0 0 0 279.0111 88.1169
  L 279.1782 86.0837
  Z"
/>
<path fill="#46999d" d="
  M 276.18 80.14
  Q 275.42 81.61 273.70 81.15
  Q 273.04 80.98 273.49 80.47
  Q 274.35 79.48 275.64 79.34
  A 0.55 0.55 0.0 0 1 276.18 80.14
  Z"
/>
<rect fill="#46999d" x="-1.59" y="-1.99" transform="translate(277.51,86.97) rotate(4.7)" width="3.18" height="3.98" rx="0.97"/>
</svg>
